<?xml version="1.0" encoding="utf-8"?>
<svg version="1.1" id="Layer_1"
xmlns="http://www.w3.org/2000/svg"
xmlns:xlink="http://www.w3.org/1999/xlink"
width="200px" height="200px"
xml:space="preserve">
<g id="PathID_7" transform="matrix(1.80018, 0, 0, 1.80018, 100, 99.5)" opacity="1">
<path style="fill:#3D7C18;fill-opacity:1" d="M44.1 -25.9L44.4 25.9L0 51.1L-44.1 25.9L-44.4 -25.9L0 -51.1L44.1 -25.9" />
</g>
<g id="PathID_8" transform="matrix(1.80018, 0, 0, 1.80018, 100, 99.5)" opacity="1">
</g>
<g id="PathID_9" transform="matrix(1.69916, 0, 0, 1.69916, 43.2, 130.2)" opacity="1">
<path style="fill:#FFFFFF;fill-opacity:1" d="M32.55 -28.55L28.15 -27.35Q26.25 -35.65 19 -35.65Q13.65 -35.65 10.65 -31.05Q7.85 -26.85 7.85 -19.75Q7.85 -11.7 11.45 -7.45Q14.4 -3.9 19 -3.9Q26.65 -3.9 28.55 -12.35L32.8 -10.9Q29.75 -0.2 18.95 -0.2Q11.45 -0.2 7.1 -6Q3.15 -11.2 3.15 -19.7Q3.15 -29.45 8.25 -34.8Q12.5 -39.35 18.95 -39.35Q24.55 -39.35 28.25 -36.1Q31.35 -33.3 32.55 -28.55" />
</g>
<g id="PathID_10" transform="matrix(1.69916, 0, 0, 1.69916, 43.2, 130.2)" opacity="1">
</g>
<g id="PathID_11" transform="matrix(1.69916, 0, 0, 1.69916, 102.65, 130.2)" opacity="1">
<path style="fill:#FFFFFF;fill-opacity:1" d="M24.95 -38.65L22.65 -27.65L27.85 -27.65L27.15 -24.35L22 -24.35L20.1 -15.25L25.4 -15.25L24.6 -11.9L19.45 -11.9L17.15 -0.95L14.85 -0.95L17.15 -11.9L9.4 -11.9L7.05 -0.95L4.75 -0.95L7.1 -11.9L1.9 -11.9L2.65 -15.25L7.7 -15.25L9.65 -24.35L4.35 -24.35L5.1 -27.65L10.35 -27.65L12.6 -38.65L14.9 -38.65L12.65 -27.65L20.35 -27.65L22.6 -38.65L24.95 -38.65M19.7 -24.35L11.95 -24.35L10.05 -15.25L17.8 -15.25L19.7 -24.35" />
</g>
<g id="PathID_12" transform="matrix(1.69916, 0, 0, 1.69916, 102.65, 130.2)" opacity="1">
</g>
</svg>
