<?xml version="1.0" encoding="utf-8"?>
<svg version="1.1" id="Layer_1"
xmlns="http://www.w3.org/2000/svg"
xmlns:xlink="http://www.w3.org/1999/xlink"
width="200px" height="200px"
xml:space="preserve">
<filter id="filter39" x="-0.521857" y="-0.521857" width="2.26113" height="2.26322" >
<feComponentTransfer in="SourceGraphic">
	<feFuncR type="linear" slope="0"/>
	<feFuncG type="linear" slope="0"/>
	<feFuncB type="linear" slope="0"/>
</feComponentTransfer>
<feGaussianBlur stdDeviation="0.6 0.6" />
<feOffset dx="7.07116" dy="7.07098"/>
<feComponentTransfer result="37">
	<feFuncR type="linear" Ue="0" intercept="0"/>
	<feFuncG type="linear" Ue="0" intercept="0"/>
	<feFuncB type="linear" Ue="0" intercept="0"/>
	<feFuncA type="linear" xh="0" slope="0.300781"/>
</feComponentTransfer>
<feComposite result="38"  in="SourceGraphic" in2="37" operator="over"/>
</filter>
<g style="filter:url(#filter39);">
<g id="PathID_179" transform="matrix(1.94045, 0, 0, 1.99579, 97, 94.45)" opacity="1">
<path style="fill:#FFFFFF;fill-opacity:1" d="M23.1 44.1L-48.3 44.4L-21.7 1.5L-48.3 -44.1L23.1 -44.4L48.3 0L23.1 44.1" />
</g>
<g id="PathID_180" transform="matrix(1.94045, 0, 0, 1.99579, 97, 94.45)" opacity="1">
<path style="fill:none;stroke-width:1;stroke-linecap:round;stroke-linejoin:round;stroke-miterlimit:3;stroke:#004700;stroke-opacity:1" d="M48.3 0L23.1 -44.35L-48.25 -44.05L-21.65 1.5L-48.25 44.4L23.1 44.1L48.3 0z" />
</g>
</g>
<g id="PathID_181" transform="matrix(0.34945, 0, 0, 0.34945, -24.3, 306.8)" opacity="1">
<path style="fill:#868485;fill-opacity:1" d="M29.85 -37.25L17.25 -16.45L17.25 0L12.3 0L12.3 -15.95L-0.3 -37.25L5.2 -37.25L14.8 -20.85L24.55 -37.25L29.85 -37.25" />
</g>
<g id="PathID_182" transform="matrix(0.34945, 0, 0, 0.34945, -24.3, 306.8)" opacity="1">
</g>
<g id="PathID_183" transform="matrix(0.34945, 0, 0, 0.34945, -14.15, 306.8)" opacity="1">
<path style="fill:#868485;fill-opacity:1" d="M26.35 -13.95Q26.35 -6.85 22.95 -3Q19.55 0.8 13.9 0.8Q8.1 0.8 4.75 -3.15Q1.45 -7.1 1.45 -13.95Q1.45 -20.95 4.85 -24.85Q8.3 -28.75 13.9 -28.75Q19.55 -28.75 22.95 -24.85Q26.35 -21 26.35 -13.95M21.5 -13.95Q21.5 -19.35 19.5 -22Q17.55 -24.65 13.9 -24.65Q10.25 -24.65 8.25 -22Q6.3 -19.35 6.3 -13.95Q6.3 -8.7 8.25 -6Q10.25 -3.3 13.9 -3.3Q17.5 -3.3 19.5 -5.95Q21.5 -8.6 21.5 -13.95" />
</g>
<g id="PathID_184" transform="matrix(0.34945, 0, 0, 0.34945, -14.15, 306.8)" opacity="1">
</g>
<g id="PathID_185" transform="matrix(0.34945, 0, 0, 0.34945, -3.5, 306.8)" opacity="1">
<path style="fill:#868485;fill-opacity:1" d="M25.15 0L20.45 0L20.45 -3.05Q18.25 -1.15 16.3 -0.15Q14.35 0.8 11.95 0.8Q10.15 0.8 8.5 0.2Q6.9 -0.4 5.7 -1.7Q4.5 -3 3.85 -4.95Q3.2 -6.95 3.2 -9.75L3.2 -27.95L7.9 -27.95L7.9 -12Q7.9 -9.8 8.05 -8.3Q8.2 -6.85 8.8 -5.75Q9.35 -4.7 10.35 -4.2Q11.35 -3.7 13.2 -3.7Q14.9 -3.7 16.85 -4.65Q18.8 -5.6 20.45 -7.05L20.45 -27.95L25.15 -27.95L25.15 0" />
</g>
<g id="PathID_186" transform="matrix(0.34945, 0, 0, 0.34945, -3.5, 306.8)" opacity="1">
</g>
<g id="PathID_187" transform="matrix(0.34945, 0, 0, 0.34945, 7.3, 306.8)" opacity="1">
<path style="fill:#868485;fill-opacity:1" d="M18.2 -22.85L17.95 -22.85L16.8 -23L15.4 -23.05Q13.5 -23.05 11.6 -22.2Q9.75 -21.4 8.1 -19.75L8.1 0L3.4 0L3.4 -27.95L8.1 -27.95L8.1 -23.75Q10.65 -26.05 12.55 -27Q14.5 -27.95 16.3 -27.95L17.35 -27.9L18.2 -27.75L18.2 -22.85" />
</g>
<g id="PathID_188" transform="matrix(0.34945, 0, 0, 0.34945, 7.3, 306.8)" opacity="1">
</g>
<g id="PathID_189" transform="matrix(0.34945, 0, 0, 0.34945, 14.65, 306.8)" opacity="1">
<path style="fill:#868485;fill-opacity:1" d="M12.5 0L12.5 -32.85L0 -32.85L0 -37.25L29.95 -37.25L29.95 -32.85L17.45 -32.85L17.45 0L12.5 0" />
</g>
<g id="PathID_190" transform="matrix(0.34945, 0, 0, 0.34945, 14.65, 306.8)" opacity="1">
</g>
<g id="PathID_191" transform="matrix(0.34945, 0, 0, 0.34945, 24.15, 306.8)" opacity="1">
<path style="fill:#868485;fill-opacity:1" d="M15.5 0.65Q8.8 0.65 5.1 -3.1Q1.45 -6.85 1.45 -13.8Q1.45 -20.65 5 -24.7Q8.6 -28.75 14.35 -28.75Q16.95 -28.75 18.95 -27.95Q20.95 -27.2 22.45 -25.6Q23.95 -24 24.75 -21.7Q25.6 -19.4 25.6 -16.05L25.6 -13.5L6.25 -13.5Q6.25 -8.6 8.7 -6Q11.15 -3.45 15.45 -3.45Q17 -3.45 18.5 -3.8Q20 -4.15 21.2 -4.7Q22.45 -5.25 23.3 -5.8Q24.2 -6.35 24.8 -6.85L25.1 -6.85L25.1 -1.7L23 -0.85L20.8 -0.1Q19.45 0.25 18.3 0.45Q17.2 0.65 15.5 0.65M21 -17.1Q20.95 -19 20.55 -20.35Q20.15 -21.75 19.4 -22.7Q18.55 -23.75 17.25 -24.3Q16 -24.85 14.1 -24.85Q12.2 -24.85 10.9 -24.25Q9.6 -23.7 8.5 -22.65Q7.45 -21.55 6.9 -20.2Q6.4 -18.85 6.25 -17.1L21 -17.1" />
</g>
<g id="PathID_192" transform="matrix(0.34945, 0, 0, 0.34945, 24.15, 306.8)" opacity="1">
</g>
<g id="PathID_193" transform="matrix(0.34945, 0, 0, 0.34945, 34.5, 306.8)" opacity="1">
<path style="fill:#868485;fill-opacity:1" d="M25.1 0L19.3 0L12.55 -10.5L5.55 0L0.25 0L9.9 -13.85L0.35 -27.95L6.1 -27.95L12.8 -17.5L19.75 -27.95L25.1 -27.95L15.45 -14.15L25.1 0" />
</g>
<g id="PathID_194" transform="matrix(0.34945, 0, 0, 0.34945, 34.5, 306.8)" opacity="1">
</g>
<g id="PathID_195" transform="matrix(0.34945, 0, 0, 0.34945, 44.3, 306.8)" opacity="1">
<path style="fill:#868485;fill-opacity:1" d="M11.85 0.55Q8 0.55 5.85 -1.6Q3.7 -3.8 3.7 -8.5L3.7 -24L0.55 -24L0.55 -27.95L3.7 -27.95L3.7 -36L8.4 -36L8.4 -27.95L17.1 -27.95L17.1 -24L8.4 -24L8.4 -10.7L8.45 -7.45Q8.55 -6.3 9.05 -5.3Q9.45 -4.4 10.4 -3.95Q11.35 -3.55 13 -3.55Q14.15 -3.55 15.2 -3.85Q16.3 -4.2 16.8 -4.45L17.1 -4.45L17.1 -0.2Q15.75 0.15 14.35 0.35Q13 0.55 11.85 0.55" />
</g>
<g id="PathID_196" transform="matrix(0.34945, 0, 0, 0.34945, 44.3, 306.8)" opacity="1">
</g>
<g id="PathID_197" transform="matrix(0.34945, 0, 0, 0.34945, 51.25, 306.8)" opacity="1">
<path style="fill:#868485;fill-opacity:1" d="M30.8 0L25.85 0L25.85 -18.25L8.75 -18.25L8.75 0L3.8 0L3.8 -37.25L8.75 -37.25L8.75 -22.65L25.85 -22.65L25.85 -37.25L30.8 -37.25L30.8 0" />
</g>
<g id="PathID_198" transform="matrix(0.34945, 0, 0, 0.34945, 51.25, 306.8)" opacity="1">
</g>
<g id="PathID_199" transform="matrix(0.34945, 0, 0, 0.34945, 64.25, 306.8)" opacity="1">
<path style="fill:#868485;fill-opacity:1" d="M15.5 0.65Q8.8 0.65 5.1 -3.1Q1.45 -6.85 1.45 -13.8Q1.45 -20.65 5 -24.7Q8.6 -28.75 14.35 -28.75Q16.95 -28.75 18.95 -27.95Q20.95 -27.2 22.45 -25.6Q23.95 -24 24.75 -21.7Q25.6 -19.4 25.6 -16.05L25.6 -13.5L6.25 -13.5Q6.25 -8.6 8.7 -6Q11.15 -3.45 15.45 -3.45Q17 -3.45 18.5 -3.8Q20 -4.15 21.2 -4.7Q22.45 -5.25 23.3 -5.8Q24.2 -6.35 24.8 -6.85L25.1 -6.85L25.1 -1.7L23 -0.85L20.8 -0.1Q19.45 0.25 18.3 0.45Q17.2 0.65 15.5 0.65M21 -17.1Q20.95 -19 20.55 -20.35Q20.15 -21.75 19.4 -22.7Q18.55 -23.75 17.25 -24.3Q16 -24.85 14.1 -24.85Q12.2 -24.85 10.9 -24.25Q9.6 -23.7 8.5 -22.65Q7.45 -21.55 6.9 -20.2Q6.4 -18.85 6.25 -17.1L21 -17.1" />
</g>
<g id="PathID_200" transform="matrix(0.34945, 0, 0, 0.34945, 64.25, 306.8)" opacity="1">
</g>
<g id="PathID_201" transform="matrix(0.34945, 0, 0, 0.34945, 74.6, 306.8)" opacity="1">
<path style="fill:#868485;fill-opacity:1" d="M18.2 -22.85L17.95 -22.85L16.8 -23L15.4 -23.05Q13.5 -23.05 11.6 -22.2Q9.75 -21.4 8.1 -19.75L8.1 0L3.4 0L3.4 -27.95L8.1 -27.95L8.1 -23.75Q10.65 -26.05 12.55 -27Q14.5 -27.95 16.3 -27.95L17.35 -27.9L18.2 -27.75L18.2 -22.85" />
</g>
<g id="PathID_202" transform="matrix(0.34945, 0, 0, 0.34945, 74.6, 306.8)" opacity="1">
</g>
<g id="PathID_203" transform="matrix(0.34945, 0, 0, 0.34945, 81.9, 306.8)" opacity="1">
<path style="fill:#868485;fill-opacity:1" d="M15.5 0.65Q8.8 0.65 5.1 -3.1Q1.45 -6.85 1.45 -13.8Q1.45 -20.65 5 -24.7Q8.6 -28.75 14.35 -28.75Q16.95 -28.75 18.95 -27.95Q20.95 -27.2 22.45 -25.6Q23.95 -24 24.75 -21.7Q25.6 -19.4 25.6 -16.05L25.6 -13.5L6.25 -13.5Q6.25 -8.6 8.7 -6Q11.15 -3.45 15.45 -3.45Q17 -3.45 18.5 -3.8Q20 -4.15 21.2 -4.7Q22.45 -5.25 23.3 -5.8Q24.2 -6.35 24.8 -6.85L25.1 -6.85L25.1 -1.7L23 -0.85L20.8 -0.1Q19.45 0.25 18.3 0.45Q17.2 0.65 15.5 0.65M21 -17.1Q20.95 -19 20.55 -20.35Q20.15 -21.75 19.4 -22.7Q18.55 -23.75 17.25 -24.3Q16 -24.85 14.1 -24.85Q12.2 -24.85 10.9 -24.25Q9.6 -23.7 8.5 -22.65Q7.45 -21.55 6.9 -20.2Q6.4 -18.85 6.25 -17.1L21 -17.1" />
</g>
<g id="PathID_204" transform="matrix(0.34945, 0, 0, 0.34945, 81.9, 306.8)" opacity="1">
</g>
<g id="PathID_205" transform="matrix(0.735685, 0, 0, 0.735685, 47.2, 143.6)" opacity="1">
<path style="fill:#006C07;fill-opacity:1" d="M18.15 -34.15Q23.55 -34.15 26.15 -32.35Q28.75 -30.55 28.75 -26.7Q28.75 -15 14.05 -15L12.25 -15L10.35 -3.2Q12 -2.25 15 -1.85L14.75 0L1.2 0L1.45 -1.85Q4.15 -2.2 5.8 -3.2L10.25 -30.9Q8.6 -31.9 5.85 -32.25L6.1 -34.15L18.15 -34.15M18.55 -32Q15.9 -32 15.35 -31.55Q14.8 -31.1 14.65 -30.15L12.6 -17.3L14.05 -17.3Q18.75 -17.3 21.45 -19.7Q24.15 -22.1 24.15 -26.6Q24.15 -32 18.55 -32" />
</g>
<g id="PathID_206" transform="matrix(0.735685, 0, 0, 0.735685, 47.2, 143.6)" opacity="1">
<path style="fill:none;stroke-width:1;stroke-linecap:round;stroke-linejoin:round;stroke-miterlimit:3;stroke:#004700;stroke-opacity:1" d="M18.15 -34.1Q23.5 -34.1 26.1 -32.3Q28.75 -30.5 28.75 -26.65Q28.75 -14.95 14 -14.95L12.2 -14.95L10.3 -3.2Q11.95 -2.25 14.95 -1.85L14.75 0L1.15 0L1.4 -1.85Q4.15 -2.2 5.75 -3.2L10.2 -30.85Q8.55 -31.9 5.85 -32.2L6.05 -34.1L18.15 -34.1z" />
<path style="fill:none;stroke-width:1;stroke-linecap:round;stroke-linejoin:round;stroke-miterlimit:3;stroke:#004700;stroke-opacity:1" d="M18.45 -31.95Q15.8 -31.95 15.25 -31.55Q14.75 -31.05 14.6 -30.1L12.55 -17.25L14 -17.25Q18.65 -17.25 21.4 -19.65Q24.1 -22.1 24.1 -26.55Q24.1 -31.95 18.45 -31.95z" />
</g>
<g id="PathID_207" transform="matrix(0.735685, 0, 0, 0.735685, 68.1, 143.6)" opacity="1">
<path style="fill:#006C07;fill-opacity:1" d="M2.6 0Q5.55 -18.85 5.55 -19.65Q5.55 -20.45 4.75 -20.75Q4 -21.05 2.3 -21.05L2 -22.75L9.15 -24.35L10.4 -23.05L9.7 -18.1Q12.85 -24.35 16.45 -24.35Q18.35 -24.35 19.4 -23.15Q20.45 -21.95 20.45 -20.4Q20.45 -18.9 19.5 -17.8Q18.6 -16.75 17.15 -16.75Q15.75 -16.75 15.3 -17.65Q15.65 -18.5 15.65 -19.7Q15.65 -20.9 14.7 -20.9Q13 -20.9 10.95 -17.3Q8.95 -13.75 8.05 -7.4L7.1 0L2.6 0" />
</g>
<g id="PathID_208" transform="matrix(0.735685, 0, 0, 0.735685, 68.1, 143.6)" opacity="1">
<path style="fill:none;stroke-width:1;stroke-linecap:round;stroke-linejoin:round;stroke-miterlimit:3;stroke:#004700;stroke-opacity:1" d="M2.55 0Q5.5 -18.85 5.5 -19.65Q5.5 -20.4 4.7 -20.75Q3.95 -21 2.25 -21L1.95 -22.7L9.1 -24.35L10.4 -23.05L9.65 -18.1Q12.85 -24.35 16.45 -24.35Q18.25 -24.35 19.35 -23.1Q20.4 -21.9 20.4 -20.4Q20.4 -18.9 19.45 -17.75Q18.55 -16.7 17.1 -16.7Q15.7 -16.7 15.3 -17.6Q15.6 -18.5 15.6 -19.65Q15.6 -20.85 14.65 -20.85Q12.95 -20.85 10.95 -17.25Q8.9 -13.75 8 -7.35L7.05 0L2.55 0z" />
</g>
<g id="PathID_209" transform="matrix(0.735685, 0, 0, 0.735685, 83.4, 143.6)" opacity="1">
<path style="fill:#006C07;fill-opacity:1" d="M11.15 -2.05Q14.05 -2.05 16.35 -6.15Q18.7 -10.25 18.7 -16.05Q18.7 -21.9 15.15 -21.9Q12.15 -21.9 9.85 -17.75Q7.55 -13.65 7.55 -7.85Q7.55 -2.05 11.15 -2.05M11.15 0.4Q7.05 0.4 4.9 -1.85Q2.8 -4.15 2.8 -8.35Q2.8 -14.85 6.05 -19.6Q9.35 -24.35 15.15 -24.35Q19.25 -24.35 21.35 -22.05Q23.5 -19.8 23.5 -15.6Q23.5 -9.05 20.2 -4.3Q16.9 0.4 11.15 0.4" />
</g>
<g id="PathID_210" transform="matrix(0.735685, 0, 0, 0.735685, 83.4, 143.6)" opacity="1">
<path style="fill:none;stroke-width:1;stroke-linecap:round;stroke-linejoin:round;stroke-miterlimit:3;stroke:#004700;stroke-opacity:1" d="M11.15 -2.05Q14 -2.05 16.3 -6.1Q18.7 -10.2 18.7 -16.05Q18.7 -21.9 15.1 -21.9Q12.1 -21.9 9.8 -17.75Q7.55 -13.6 7.55 -7.8Q7.55 -2.05 11.15 -2.05z" />
<path style="fill:none;stroke-width:1;stroke-linecap:round;stroke-linejoin:round;stroke-miterlimit:3;stroke:#004700;stroke-opacity:1" d="M11.15 0.35Q7 0.35 4.9 -1.85Q2.8 -4.15 2.8 -8.3Q2.8 -14.8 6.05 -19.55Q9.3 -24.35 15.1 -24.35Q19.2 -24.35 21.35 -22Q23.45 -19.8 23.45 -15.55Q23.45 -9.05 20.15 -4.3Q16.85 0.35 11.15 0.35z" />
</g>
<g id="PathID_211" transform="matrix(0.735685, 0, 0, 0.735685, 102.45, 143.6)" opacity="1">
<path style="fill:#006C07;fill-opacity:1" d="M2.5 10.15Q1.7 10.55 0.65 10.9Q-0.4 11.25 -2.1 11.25Q-3.8 11.25 -5.2 10.15Q-6.65 9.1 -6.65 7.35Q-6.65 5.65 -5.75 4.75Q-4.85 3.9 -3.6 3.9Q-1.55 3.9 -1.15 5.75Q-2 6.2 -2 7.35Q-2 8.8 -0.65 8.8Q1.45 8.8 2.25 5.95Q2.75 4.1 3.05 0.85L3.6 -3.55L6.45 -21.1L2.65 -21.1L2.95 -22.85L6.85 -23.9L7.3 -26.25Q9.1 -35.65 16 -35.65Q18.3 -35.65 19.9 -34.45Q21.55 -33.25 21.55 -31.45Q21.55 -29.65 20.55 -28.6Q19.6 -27.6 18.35 -27.6Q16.55 -27.6 16.05 -29.45Q17.3 -30.4 17.3 -31.3Q17.3 -33.25 15.05 -33.25Q12.65 -33.25 11.95 -30.7Q11.45 -28.8 11.35 -26.5L11.2 -23.65L16.1 -23.65L15.75 -21.1L10.8 -21.1L7.9 -3Q7.15 2 6.8 2.95L6 5.3Q5.55 6.7 5.1 7.25L3.95 8.8Q3.25 9.75 2.5 10.15" />
</g>
<g id="PathID_212" transform="matrix(0.735685, 0, 0, 0.735685, 102.45, 143.6)" opacity="1">
<path style="fill:none;stroke-width:1;stroke-linecap:round;stroke-linejoin:round;stroke-miterlimit:3;stroke:#004700;stroke-opacity:1" d="M2.45 10.15Q1.7 10.55 0.6 10.9Q-0.35 11.25 -2.05 11.25Q-3.75 11.25 -5.2 10.15Q-6.65 9.05 -6.65 7.35Q-6.65 5.65 -5.75 4.7Q-4.85 3.9 -3.55 3.9Q-1.55 3.9 -1.1 5.75Q-2 6.2 -2 7.35Q-2 8.8 -0.65 8.8Q1.4 8.8 2.25 5.95Q2.7 4.1 2.95 0.85L3.5 -3.55L6.35 -21.05L2.55 -21.05L2.9 -22.85L6.8 -23.85L7.25 -26.25Q9 -35.6 15.95 -35.6Q18.25 -35.6 19.85 -34.4Q21.55 -33.25 21.55 -31.4Q21.55 -29.65 20.5 -28.55Q19.55 -27.6 18.25 -27.6Q16.5 -27.6 16 -29.45Q17.25 -30.4 17.25 -31.25Q17.25 -33.25 15 -33.25Q12.6 -33.25 11.9 -30.65Q11.4 -28.75 11.35 -26.45L11.15 -23.6L16 -23.6L15.7 -21.05L10.7 -21.05L7.85 -3Q7.1 2 6.8 2.95L5.95 5.25Q5.5 6.7 5.1 7.2L3.9 8.8Q3.2 9.75 2.45 10.15z" />
</g>
<g id="PathID_213" transform="matrix(0.735685, 0, 0, 0.735685, 113.4, 143.6)" opacity="1">
<path style="fill:#006C07;fill-opacity:1" d="M5.4 -19.4Q5.4 -20.45 4.65 -20.75Q3.9 -21.05 2.2 -21.05L1.9 -22.75L9.2 -24.35L10.45 -23.05Q7.5 -5.25 7.5 -4.4Q7.5 -3.6 7.65 -3.35Q7.85 -3.15 8.65 -3.15Q9.45 -3.15 11.1 -4.1L11.6 -2.5Q8.25 0.4 5.7 0.4Q3.95 0.4 3.4 -0.25Q2.85 -0.95 2.85 -2.05Q2.85 -3.15 4.1 -11.15L5.4 -19.4M11.7 -30.95Q11.7 -29.55 10.85 -28.55Q10 -27.6 8.8 -27.6Q6.25 -27.6 6.25 -29.95Q6.25 -31.6 7.1 -32.55Q7.95 -33.55 9.15 -33.55Q10.4 -33.55 11.05 -32.95Q11.7 -32.35 11.7 -30.95" />
</g>
<g id="PathID_214" transform="matrix(0.735685, 0, 0, 0.735685, 113.4, 143.6)" opacity="1">
<path style="fill:none;stroke-width:1;stroke-linecap:round;stroke-linejoin:round;stroke-miterlimit:3;stroke:#004700;stroke-opacity:1" d="M5.4 -19.35Q5.4 -20.4 4.65 -20.75Q3.9 -21 2.2 -21L1.85 -22.7L9.2 -24.35L10.4 -23.05Q7.5 -5.25 7.5 -4.35Q7.5 -3.55 7.65 -3.35Q7.85 -3.15 8.65 -3.15Q9.45 -3.15 11.1 -4.1L11.55 -2.45Q8.25 0.35 5.65 0.35Q3.95 0.35 3.4 -0.2Q2.8 -0.9 2.8 -2.05Q2.8 -3.15 4.1 -11.15L5.4 -19.35z" />
<path style="fill:none;stroke-width:1;stroke-linecap:round;stroke-linejoin:round;stroke-miterlimit:3;stroke:#004700;stroke-opacity:1" d="M11.7 -30.9Q11.7 -29.5 10.8 -28.55Q10 -27.6 8.8 -27.6Q6.2 -27.6 6.2 -29.9Q6.2 -31.55 7.1 -32.5Q7.9 -33.5 9.1 -33.5Q10.4 -33.5 11.05 -32.9Q11.7 -32.3 11.7 -30.9z" />
</g>
<g id="PathID_215" transform="matrix(0.735685, 0, 0, 0.735685, 123.65, 143.6)" opacity="1">
<path style="fill:#006C07;fill-opacity:1" d="M10.05 -25.9L7.75 -11.45Q6.7 -4.75 6.7 -4.2Q6.7 -3.65 6.9 -3.4Q7.1 -3.15 7.9 -3.15Q8.7 -3.15 10.3 -4.1L10.85 -2.5Q7.5 0.4 4.95 0.4Q3.2 0.4 2.6 -0.25Q2.05 -0.95 2.05 -2Q2.05 -3.95 4.6 -19.45L5.45 -24.55Q6.5 -30.8 6.5 -31.35Q6.5 -33.5 2.55 -33.9L2.8 -35.6L10.2 -36.15L11.5 -34.9L10.05 -25.9" />
</g>
<g id="PathID_216" transform="matrix(0.735685, 0, 0, 0.735685, 123.65, 143.6)" opacity="1">
<path style="fill:none;stroke-width:1;stroke-linecap:round;stroke-linejoin:round;stroke-miterlimit:3;stroke:#004700;stroke-opacity:1" d="M10 -25.9L7.75 -11.4Q6.65 -4.7 6.65 -4.15Q6.65 -3.6 6.85 -3.4Q7.05 -3.15 7.9 -3.15Q8.7 -3.15 10.25 -4.1L10.8 -2.45Q7.5 0.35 4.9 0.35Q3.2 0.35 2.6 -0.2Q2.05 -0.9 2.05 -1.95Q2.05 -3.95 4.55 -19.45L5.45 -24.55Q6.45 -30.8 6.45 -31.35Q6.45 -33.45 2.5 -33.85L2.8 -35.55L10.2 -36.1L11.5 -34.85L10 -25.9z" />
</g>
<g id="PathID_217" transform="matrix(0.735685, 0, 0, 0.735685, 133.65, 143.6)" opacity="1">
<path style="fill:#006C07;fill-opacity:1" d="M21.65 -18.9Q21.65 -15.15 17.4 -12.55Q13.15 -9.95 6.7 -9.95L6.7 -8.8Q6.7 -5.5 7.9 -3.9Q9.15 -2.3 11.25 -2.3Q14.1 -2.3 18.25 -5.4L19.75 -3.5Q18.15 -1.9 15.6 -0.75Q13.05 0.4 10.2 0.4Q5.95 0.4 3.95 -2.05Q2 -4.55 2 -8Q2 -15.4 5.5 -19.85Q9.05 -24.35 14.6 -24.35Q18.1 -24.35 19.85 -22.75Q21.65 -21.15 21.65 -18.9M14.25 -22Q11.45 -22 9.5 -19.3Q7.6 -16.65 6.95 -12.45Q11.5 -12.45 14.3 -14.3Q17.15 -16.15 17.15 -19Q17.15 -20.25 16.4 -21.1Q15.65 -22 14.25 -22" />
</g>
<g id="PathID_218" transform="matrix(0.735685, 0, 0, 0.735685, 133.65, 143.6)" opacity="1">
<path style="fill:none;stroke-width:1;stroke-linecap:round;stroke-linejoin:round;stroke-miterlimit:3;stroke:#004700;stroke-opacity:1" d="M21.6 -18.9Q21.6 -15.1 17.4 -12.5Q13.1 -9.9 6.65 -9.9L6.65 -8.75Q6.65 -5.45 7.9 -3.85Q9.1 -2.25 11.2 -2.25Q14.05 -2.25 18.2 -5.35L19.7 -3.45Q18.15 -1.85 15.55 -0.75Q13.05 0.35 10.2 0.35Q5.9 0.35 3.95 -2.05Q1.95 -4.5 1.95 -7.95Q1.95 -15.35 5.45 -19.85Q9.05 -24.35 14.55 -24.35Q18.05 -24.35 19.85 -22.7Q21.6 -21.15 21.6 -18.9z" />
<path style="fill:none;stroke-width:1;stroke-linecap:round;stroke-linejoin:round;stroke-miterlimit:3;stroke:#004700;stroke-opacity:1" d="M14.2 -21.95Q11.4 -21.95 9.45 -19.25Q7.55 -16.6 6.9 -12.45Q11.5 -12.45 14.25 -14.25Q17.1 -16.1 17.1 -18.95Q17.1 -20.2 16.35 -21.05Q15.6 -21.95 14.2 -21.95z" />
</g>
<filter id="filter42" x="-0.521857" y="-0.521857" width="2.2411" height="2.24373" >
<feComponentTransfer in="SourceGraphic">
	<feFuncR type="linear" slope="0"/>
	<feFuncG type="linear" slope="0"/>
	<feFuncB type="linear" slope="0"/>
</feComponentTransfer>
<feGaussianBlur stdDeviation="0.6 0.6" />
<feOffset dx="2.12135" dy="2.12129"/>
<feComponentTransfer result="40">
	<feFuncR type="linear" Ue="0" intercept="0.101961"/>
	<feFuncG type="linear" Ue="0" intercept="0.352941"/>
	<feFuncB type="linear" Ue="0" intercept="0.113725"/>
	<feFuncA type="linear" xh="0" slope="2"/>
</feComponentTransfer>
<feComposite result="41"  in="SourceGraphic" in2="40" operator="over"/>
</filter>
<g style="filter:url(#filter42);">
<g id="PathID_219" transform="matrix(0.819404, 0, 0, 0.819404, 332.65, 76.9)" opacity="1">
<path style="fill:#00A60B;fill-opacity:1" d="M127.45 16.95L101.3 20.8L104.55 42.5L130.4 38.95L127.45 16.95M133.35 4.45L150 123.05Q150.3 123.65 149.7 124.2L148.8 124.8L125.35 128.1L122.1 128.4L120 128.4L114.95 128.7Q110.5 129 109.3 129.55Q109 129.25 109 128.7L92.4 10.4Q92.1 9.8 92.4 9.25L93.55 8.65L131.6 3.3L132.75 3.6L133.35 4.45M90.9 0.6Q91.2 0.9 91.2 1.8L91.2 128.7L91.2 129.25Q86.15 129 80.5 129Q67.7 129 58.8 129.55L52.85 130.15L51.1 130.15L48.1 129.85L47.8 129.55Q47.25 129.25 47.25 128.7L47.25 1.8Q47.25 0.9 47.8 0.6Q48.1 0 49 0L89.7 0Q90.3 0 90.9 0.6M83.15 14L55.25 14L55.25 37.45L83.15 37.45L83.15 14M41.6 8.95L41.6 128.7L41.3 129.25Q34.45 129 25.25 129Q13.35 129 5.05 129.55L0.9 130.15L0.3 129.55Q0 129.25 0 128.7L0 8.95Q0 8.35 0.3 8.05Q0.9 7.45 1.5 7.45L39.8 7.45Q40.7 7.45 41 8.05Q41.6 8.35 41.6 8.95M33.85 20.5L7.4 20.5L7.4 42.5L33.85 42.5L33.85 20.5M79.3 108.2Q79.3 104 76.35 101.05Q73.35 98.05 69.2 98.05Q65.05 98.05 62.1 101.05Q59.1 104 59.1 108.2Q59.1 112.35 62.1 115.3Q65.05 118.3 69.2 118.3Q73.65 118.3 76.35 115.3Q79.3 112.35 79.3 108.2M27.9 115.3Q30.9 112.35 30.9 108.2Q30.9 104 27.9 101.05Q24.95 98.05 20.8 98.05Q16.65 98.05 13.65 101.05Q10.7 104 10.7 108.2Q10.7 112.35 13.65 115.3Q16.65 118.3 20.8 118.3Q24.95 118.3 27.9 115.3M134.85 101.05Q131.9 98.05 127.7 98.05Q123.55 98.05 120.6 101.05Q117.6 104 117.6 108.2Q117.6 112.35 120.6 115.3Q123.55 118.3 127.7 118.3Q131.9 118.3 134.85 115.3Q137.8 112.35 137.8 108.2Q137.8 104 134.85 101.05" />
</g>
<g id="PathID_220" transform="matrix(0.819404, 0, 0, 0.819404, 332.65, 76.9)" opacity="1">
</g>
</g>
<g id="PathID_221" transform="matrix(0.504037, 0, 0, 0.504037, 64, 36.7)" opacity="1">
<path style="fill:#004700;fill-opacity:1" d="M82.65 20.3L17.55 20.3L17.55 15.65L82.65 15.65L82.65 20.3M82.65 38.95L17.55 38.95L17.55 34.3L82.65 34.3L82.65 38.95M85 4.7L12.75 4.7Q9.45 4.7 7 7.15Q4.8 9.5 4.8 12.6L4.8 118.35Q4.8 121.55 7 123.9L7 124.1Q9.45 126.35 12.75 126.45L46.65 126.45L46.95 108.95L45.15 107.45L45.25 107.45Q37.2 99.55 37.2 88.25Q37.2 76.95 45.25 69.1L45.15 69.1Q53.25 61 64.45 61.05Q75.7 61.05 83.7 69.1L83.7 69.15Q91.65 76.95 91.65 88.25Q91.65 99.55 83.7 107.45L81.25 109.75L81.25 126.45L85 126.45Q88.45 126.35 90.75 123.9L90.75 124.1Q93.05 121.55 93.1 118.35L93.1 12.6Q93.05 9.5 90.75 7.15Q88.45 4.7 85 4.7M97.8 12.6L97.8 118.35Q97.8 123.5 94 127.45Q90.4 131.1 85 131.1L81.25 131.1L81.25 144.2Q81.25 148.7 78.55 149.6L78.4 149.6L78.4 149.7Q75.85 150.9 72.75 147.75L66 141.1Q64.9 139.85 63.4 139.85Q61.75 139.85 60.6 141.1L54.9 146.6Q51.7 149.7 49.5 148.4L49.35 148.4Q46.65 147.65 46.65 143.15L46.65 131.1L12.75 131.1Q7.5 131.1 3.75 127.45L3.6 127.45Q0 123.5 0 118.35L0 12.6Q0 7.55 3.6 3.8L3.6 3.7L3.75 3.7Q7.5 -0.15 12.75 0L85 0Q90.4 -0.15 94 3.7L94 3.8Q97.8 7.55 97.8 12.6M82.65 57.55L17.55 57.55L17.55 52.9L82.65 52.9L82.65 57.55M17.55 90.2L32.4 90.2L32.4 94.85L17.55 94.85L17.55 90.2M17.55 71.45L32.4 71.45L32.4 76.2L17.55 76.2L17.55 71.45M64.45 65.9Q55.2 65.9 48.6 72.5Q41.8 78.9 42.05 88.25Q41.8 97.75 48.6 104.1L50.4 105.85L50.65 106.1Q56.55 110.9 64.45 110.9Q71.25 110.9 76.6 107.3L76.6 106.8L77.25 106.8L77.65 106.4L80.25 104.1Q86.8 97.55 86.95 88.25Q86.95 78.9 80.35 72.5L80.25 72.5Q73.8 65.75 64.45 65.9M57.45 95.25L57.45 95.45Q60.2 98.45 64.45 98.45Q68.55 98.3 71.5 95.25Q74.55 92.4 74.55 88.25Q74.55 84.25 71.5 81.2Q68.55 78.15 64.45 78.15Q60.2 78 57.45 81.2Q54.3 84.25 54.3 88.25Q54.3 92.4 57.45 95.25M54 78L54.05 77.9Q58.35 73.5 64.45 73.5Q70.45 73.35 74.95 77.9Q79.3 82.25 79.3 88.25Q79.3 94.35 74.95 98.7Q70.45 103.15 64.45 103.15Q58.35 103.15 54.05 98.7L54 98.7Q49.65 94.35 49.65 88.25Q49.5 82.25 54 78M64.45 115.55Q57.25 115.4 51.35 112.4L51.3 143.15L51.3 143.55L51.6 143.3L51.7 143.3L57.45 137.6Q59.8 135.2 63.4 135.2Q66.85 135.05 69.45 137.6L76.15 144.3L76.6 144.8L76.6 144.2L76.6 112.7Q71.1 115.4 64.45 115.55" />
</g>
<g id="PathID_222" transform="matrix(0.504037, 0, 0, 0.504037, 64, 36.7)" opacity="1">
</g>
<g id="PathID_223" transform="matrix(0.504205, 0, 0, 0.504205, 115.15, 32.3)" opacity="1">
<path style="fill:#004700;fill-opacity:1" d="M60.55 3.85Q64.45 7.75 64.45 13.3Q64.45 18.75 60.55 22.65Q56.5 26.6 51.05 26.6Q45.65 26.6 41.8 22.65Q37.9 18.75 37.9 13.3Q37.9 7.75 41.8 3.85Q45.65 0 51.05 0Q56.5 0 60.55 3.85M74.65 31.35Q76.95 33.65 76.95 36.75L76.95 70.4Q76.95 73.75 74.65 75.95Q72.35 78.3 69.2 78.3L67.5 78.1L67.5 131.15Q67.5 137 64.65 141.55L62.55 144.45Q57.6 150 50.55 150Q43.6 150 38.6 144.45L36.45 141.55Q33.65 137 33.65 131.15L33.65 48.05L13.8 71Q11.5 73.45 8.35 73.75Q5.15 73.85 2.75 71.85Q0.3 69.6 0 66.5Q-0.2 63.25 1.9 60.85L27.2 31.75Q29.6 28.9 33.25 29L69.2 29Q72.35 29 74.65 31.35" />
</g>
<g id="PathID_224" transform="matrix(0.504205, 0, 0, 0.504205, 115.15, 32.3)" opacity="1">
</g>
</svg>
