<?xml version="1.0" encoding="utf-8"?>
<svg version="1.1" id="Layer_1"
xmlns="http://www.w3.org/2000/svg"
xmlns:xlink="http://www.w3.org/1999/xlink"
width="200px" height="200px"
xml:space="preserve">
<g id="PathID_1" transform="matrix(1.80018, 0, 0, 1.80018, 100, 99.5)" opacity="1">
<path style="fill:#8E2D1B;fill-opacity:1" d="M44.1 -25.9L44.4 25.9L0 51.1L-44.1 25.9L-44.4 -25.9L0 -51.1L44.1 -25.9" />
</g>
<g id="PathID_2" transform="matrix(1.80018, 0, 0, 1.80018, 100, 99.5)" opacity="1">
</g>
<g id="PathID_3" transform="matrix(1.69916, 0, 0, 1.69916, 56.2, 129.2)" opacity="1">
<path style="fill:#FFFFFF;fill-opacity:1" d="M19.45 -38.65L31.6 -0.95L26.95 -0.95L23.3 -12.9L9.85 -12.9L6.05 -0.95L1.7 -0.95L13.8 -38.65L19.45 -38.65M22.3 -16.4L19.5 -25.55Q18.4 -29.05 16.85 -35.2L16.05 -35.2Q14.8 -29.85 13.45 -25.6L10.7 -16.4L22.3 -16.4" />
</g>
<g id="PathID_4" transform="matrix(1.69916, 0, 0, 1.69916, 56.2, 129.2)" opacity="1">
</g>
<g id="PathID_5" transform="matrix(1.69916, 0, 0, 1.69916, 112.75, 129.2)" opacity="1">
<path style="fill:#FFFFFF;fill-opacity:1" d="M9.8 -38.65L9.8 -0.95L5.35 -0.95L5.35 -38.65L9.8 -38.65" />
</g>
<g id="PathID_6" transform="matrix(1.69916, 0, 0, 1.69916, 112.75, 129.2)" opacity="1">
</g>
</svg>
