<?xml version="1.0" encoding="utf-8"?>
<svg version="1.1" id="Layer_1"
xmlns="http://www.w3.org/2000/svg"
xmlns:xlink="http://www.w3.org/1999/xlink"
width="200px" height="200px"
xml:space="preserve">
<filter id="filter3" x="-0.521857" y="-0.521857" width="2.26113" height="2.26322" >
<feComponentTransfer in="SourceGraphic">
	<feFuncR type="linear" slope="0"/>
	<feFuncG type="linear" slope="0"/>
	<feFuncB type="linear" slope="0"/>
</feComponentTransfer>
<feGaussianBlur stdDeviation="0.6 0.6" />
<feOffset dx="7.07116" dy="7.07098"/>
<feComponentTransfer result="1">
	<feFuncR type="linear" Ue="0" intercept="0"/>
	<feFuncG type="linear" Ue="0" intercept="0"/>
	<feFuncB type="linear" Ue="0" intercept="0"/>
	<feFuncA type="linear" xh="0" slope="0.300781"/>
</feComponentTransfer>
<feComposite result="2"  in="SourceGraphic" in2="1" operator="over"/>
</filter>
<g style="filter:url(#filter3);">
<g id="PathID_1" transform="matrix(1.94045, 0, 0, 1.99579, 97, 94.45)" opacity="1">
<path style="fill:#FFFFFF;fill-opacity:1" d="M23.1 44.1L-48.3 44.4L-21.7 1.5L-48.3 -44.1L23.1 -44.4L48.3 0L23.1 44.1" />
</g>
<g id="PathID_2" transform="matrix(1.94045, 0, 0, 1.99579, 97, 94.45)" opacity="1">
<path style="fill:none;stroke-width:1;stroke-linecap:round;stroke-linejoin:round;stroke-miterlimit:3;stroke:#004700;stroke-opacity:1" d="M48.3 0L23.1 -44.35L-48.25 -44.05L-21.65 1.5L-48.25 44.4L23.1 44.1L48.3 0z" />
</g>
</g>
<g id="PathID_3" transform="matrix(0.34945, 0, 0, 0.34945, -24.3, 306.8)" opacity="1">
<path style="fill:#868485;fill-opacity:1" d="M29.85 -37.25L17.25 -16.45L17.25 0L12.3 0L12.3 -15.95L-0.3 -37.25L5.2 -37.25L14.8 -20.85L24.55 -37.25L29.85 -37.25" />
</g>
<g id="PathID_4" transform="matrix(0.34945, 0, 0, 0.34945, -24.3, 306.8)" opacity="1">
</g>
<g id="PathID_5" transform="matrix(0.34945, 0, 0, 0.34945, -14.15, 306.8)" opacity="1">
<path style="fill:#868485;fill-opacity:1" d="M26.35 -13.95Q26.35 -6.85 22.95 -3Q19.55 0.8 13.9 0.8Q8.1 0.8 4.75 -3.15Q1.45 -7.1 1.45 -13.95Q1.45 -20.95 4.85 -24.85Q8.3 -28.75 13.9 -28.75Q19.55 -28.75 22.95 -24.85Q26.35 -21 26.35 -13.95M21.5 -13.95Q21.5 -19.35 19.5 -22Q17.55 -24.65 13.9 -24.65Q10.25 -24.65 8.25 -22Q6.3 -19.35 6.3 -13.95Q6.3 -8.7 8.25 -6Q10.25 -3.3 13.9 -3.3Q17.5 -3.3 19.5 -5.95Q21.5 -8.6 21.5 -13.95" />
</g>
<g id="PathID_6" transform="matrix(0.34945, 0, 0, 0.34945, -14.15, 306.8)" opacity="1">
</g>
<g id="PathID_7" transform="matrix(0.34945, 0, 0, 0.34945, -3.5, 306.8)" opacity="1">
<path style="fill:#868485;fill-opacity:1" d="M25.15 0L20.45 0L20.45 -3.05Q18.25 -1.15 16.3 -0.15Q14.35 0.8 11.95 0.8Q10.15 0.8 8.5 0.2Q6.9 -0.4 5.7 -1.7Q4.5 -3 3.85 -4.95Q3.2 -6.95 3.2 -9.75L3.2 -27.95L7.9 -27.95L7.9 -12Q7.9 -9.8 8.05 -8.3Q8.2 -6.85 8.8 -5.75Q9.35 -4.7 10.35 -4.2Q11.35 -3.7 13.2 -3.7Q14.9 -3.7 16.85 -4.65Q18.8 -5.6 20.45 -7.05L20.45 -27.95L25.15 -27.95L25.15 0" />
</g>
<g id="PathID_8" transform="matrix(0.34945, 0, 0, 0.34945, -3.5, 306.8)" opacity="1">
</g>
<g id="PathID_9" transform="matrix(0.34945, 0, 0, 0.34945, 7.3, 306.8)" opacity="1">
<path style="fill:#868485;fill-opacity:1" d="M18.2 -22.85L17.95 -22.85L16.8 -23L15.4 -23.05Q13.5 -23.05 11.6 -22.2Q9.75 -21.4 8.1 -19.75L8.1 0L3.4 0L3.4 -27.95L8.1 -27.95L8.1 -23.75Q10.65 -26.05 12.55 -27Q14.5 -27.95 16.3 -27.95L17.35 -27.9L18.2 -27.75L18.2 -22.85" />
</g>
<g id="PathID_10" transform="matrix(0.34945, 0, 0, 0.34945, 7.3, 306.8)" opacity="1">
</g>
<g id="PathID_11" transform="matrix(0.34945, 0, 0, 0.34945, 14.65, 306.8)" opacity="1">
<path style="fill:#868485;fill-opacity:1" d="M12.5 0L12.5 -32.85L0 -32.85L0 -37.25L29.95 -37.25L29.95 -32.85L17.45 -32.85L17.45 0L12.5 0" />
</g>
<g id="PathID_12" transform="matrix(0.34945, 0, 0, 0.34945, 14.65, 306.8)" opacity="1">
</g>
<g id="PathID_13" transform="matrix(0.34945, 0, 0, 0.34945, 24.15, 306.8)" opacity="1">
<path style="fill:#868485;fill-opacity:1" d="M15.5 0.65Q8.8 0.65 5.1 -3.1Q1.45 -6.85 1.45 -13.8Q1.45 -20.65 5 -24.7Q8.6 -28.75 14.35 -28.75Q16.95 -28.75 18.95 -27.95Q20.95 -27.2 22.45 -25.6Q23.95 -24 24.75 -21.7Q25.6 -19.4 25.6 -16.05L25.6 -13.5L6.25 -13.5Q6.25 -8.6 8.7 -6Q11.15 -3.45 15.45 -3.45Q17 -3.45 18.5 -3.8Q20 -4.15 21.2 -4.7Q22.45 -5.25 23.3 -5.8Q24.2 -6.35 24.8 -6.85L25.1 -6.85L25.1 -1.7L23 -0.85L20.8 -0.1Q19.45 0.25 18.3 0.45Q17.2 0.65 15.5 0.65M21 -17.1Q20.95 -19 20.55 -20.35Q20.15 -21.75 19.4 -22.7Q18.55 -23.75 17.25 -24.3Q16 -24.85 14.1 -24.85Q12.2 -24.85 10.9 -24.25Q9.6 -23.7 8.5 -22.65Q7.45 -21.55 6.9 -20.2Q6.4 -18.85 6.25 -17.1L21 -17.1" />
</g>
<g id="PathID_14" transform="matrix(0.34945, 0, 0, 0.34945, 24.15, 306.8)" opacity="1">
</g>
<g id="PathID_15" transform="matrix(0.34945, 0, 0, 0.34945, 34.5, 306.8)" opacity="1">
<path style="fill:#868485;fill-opacity:1" d="M25.1 0L19.3 0L12.55 -10.5L5.55 0L0.25 0L9.9 -13.85L0.35 -27.95L6.1 -27.95L12.8 -17.5L19.75 -27.95L25.1 -27.95L15.45 -14.15L25.1 0" />
</g>
<g id="PathID_16" transform="matrix(0.34945, 0, 0, 0.34945, 34.5, 306.8)" opacity="1">
</g>
<g id="PathID_17" transform="matrix(0.34945, 0, 0, 0.34945, 44.3, 306.8)" opacity="1">
<path style="fill:#868485;fill-opacity:1" d="M11.85 0.55Q8 0.55 5.85 -1.6Q3.7 -3.8 3.7 -8.5L3.7 -24L0.55 -24L0.55 -27.95L3.7 -27.95L3.7 -36L8.4 -36L8.4 -27.95L17.1 -27.95L17.1 -24L8.4 -24L8.4 -10.7L8.45 -7.45Q8.55 -6.3 9.05 -5.3Q9.45 -4.4 10.4 -3.95Q11.35 -3.55 13 -3.55Q14.15 -3.55 15.2 -3.85Q16.3 -4.2 16.8 -4.45L17.1 -4.45L17.1 -0.2Q15.75 0.15 14.35 0.35Q13 0.55 11.85 0.55" />
</g>
<g id="PathID_18" transform="matrix(0.34945, 0, 0, 0.34945, 44.3, 306.8)" opacity="1">
</g>
<g id="PathID_19" transform="matrix(0.34945, 0, 0, 0.34945, 51.25, 306.8)" opacity="1">
<path style="fill:#868485;fill-opacity:1" d="M30.8 0L25.85 0L25.85 -18.25L8.75 -18.25L8.75 0L3.8 0L3.8 -37.25L8.75 -37.25L8.75 -22.65L25.85 -22.65L25.85 -37.25L30.8 -37.25L30.8 0" />
</g>
<g id="PathID_20" transform="matrix(0.34945, 0, 0, 0.34945, 51.25, 306.8)" opacity="1">
</g>
<g id="PathID_21" transform="matrix(0.34945, 0, 0, 0.34945, 64.25, 306.8)" opacity="1">
<path style="fill:#868485;fill-opacity:1" d="M15.5 0.65Q8.8 0.65 5.1 -3.1Q1.45 -6.85 1.45 -13.8Q1.45 -20.65 5 -24.7Q8.6 -28.75 14.35 -28.75Q16.95 -28.75 18.95 -27.95Q20.95 -27.2 22.45 -25.6Q23.95 -24 24.75 -21.7Q25.6 -19.4 25.6 -16.05L25.6 -13.5L6.25 -13.5Q6.25 -8.6 8.7 -6Q11.15 -3.45 15.45 -3.45Q17 -3.45 18.5 -3.8Q20 -4.15 21.2 -4.7Q22.45 -5.25 23.3 -5.8Q24.2 -6.35 24.8 -6.85L25.1 -6.85L25.1 -1.7L23 -0.85L20.8 -0.1Q19.45 0.25 18.3 0.45Q17.2 0.65 15.5 0.65M21 -17.1Q20.95 -19 20.55 -20.35Q20.15 -21.75 19.4 -22.7Q18.55 -23.75 17.25 -24.3Q16 -24.85 14.1 -24.85Q12.2 -24.85 10.9 -24.25Q9.6 -23.7 8.5 -22.65Q7.45 -21.55 6.9 -20.2Q6.4 -18.85 6.25 -17.1L21 -17.1" />
</g>
<g id="PathID_22" transform="matrix(0.34945, 0, 0, 0.34945, 64.25, 306.8)" opacity="1">
</g>
<g id="PathID_23" transform="matrix(0.34945, 0, 0, 0.34945, 74.6, 306.8)" opacity="1">
<path style="fill:#868485;fill-opacity:1" d="M18.2 -22.85L17.95 -22.85L16.8 -23L15.4 -23.05Q13.5 -23.05 11.6 -22.2Q9.75 -21.4 8.1 -19.75L8.1 0L3.4 0L3.4 -27.95L8.1 -27.95L8.1 -23.75Q10.65 -26.05 12.55 -27Q14.5 -27.95 16.3 -27.95L17.35 -27.9L18.2 -27.75L18.2 -22.85" />
</g>
<g id="PathID_24" transform="matrix(0.34945, 0, 0, 0.34945, 74.6, 306.8)" opacity="1">
</g>
<g id="PathID_25" transform="matrix(0.34945, 0, 0, 0.34945, 81.9, 306.8)" opacity="1">
<path style="fill:#868485;fill-opacity:1" d="M15.5 0.65Q8.8 0.65 5.1 -3.1Q1.45 -6.85 1.45 -13.8Q1.45 -20.65 5 -24.7Q8.6 -28.75 14.35 -28.75Q16.95 -28.75 18.95 -27.95Q20.95 -27.2 22.45 -25.6Q23.95 -24 24.75 -21.7Q25.6 -19.4 25.6 -16.05L25.6 -13.5L6.25 -13.5Q6.25 -8.6 8.7 -6Q11.15 -3.45 15.45 -3.45Q17 -3.45 18.5 -3.8Q20 -4.15 21.2 -4.7Q22.45 -5.25 23.3 -5.8Q24.2 -6.35 24.8 -6.85L25.1 -6.85L25.1 -1.7L23 -0.85L20.8 -0.1Q19.45 0.25 18.3 0.45Q17.2 0.65 15.5 0.65M21 -17.1Q20.95 -19 20.55 -20.35Q20.15 -21.75 19.4 -22.7Q18.55 -23.75 17.25 -24.3Q16 -24.85 14.1 -24.85Q12.2 -24.85 10.9 -24.25Q9.6 -23.7 8.5 -22.65Q7.45 -21.55 6.9 -20.2Q6.4 -18.85 6.25 -17.1L21 -17.1" />
</g>
<g id="PathID_26" transform="matrix(0.34945, 0, 0, 0.34945, 81.9, 306.8)" opacity="1">
</g>
<g id="PathID_27" transform="matrix(0.735685, 0, 0, 0.735685, 54.85, 144.6)" opacity="1">
<path style="fill:#006C07;fill-opacity:1" d="M26.9 -26.4Q26.15 -26.15 25.65 -26.15L24.65 -26.25Q24.55 -29.3 23.1 -31.4L13.95 -31.4L11.85 -18.3L17.4 -18.55Q19.4 -18.65 20.7 -21.95L22.35 -21.95L20.75 -11.95L19.2 -11.95Q19.2 -13.15 18.75 -14.15Q18.3 -15.2 17.85 -15.4Q17.45 -15.65 16.8 -15.7L11.45 -15.9L9.45 -3.2Q10.85 -2.35 14.35 -1.85L14.1 0L0.05 0L0.35 -1.85Q3.35 -2.25 4.95 -3.2L9.35 -30.9Q7.7 -31.85 5 -32.25L5.25 -34.15L27.75 -34.15L26.9 -26.4" />
</g>
<g id="PathID_28" transform="matrix(0.735685, 0, 0, 0.735685, 54.85, 144.6)" opacity="1">
<path style="fill:none;stroke-width:1;stroke-linecap:round;stroke-linejoin:round;stroke-miterlimit:3;stroke:#004700;stroke-opacity:1" d="M26.85 -26.4Q26.1 -26.15 25.6 -26.15L24.6 -26.3Q24.5 -29.35 23 -31.45L13.9 -31.45L11.8 -18.3L17.4 -18.55Q19.35 -18.65 20.65 -21.95L22.25 -21.95L20.7 -11.95L19.15 -11.95Q19.15 -13.15 18.65 -14.2Q18.25 -15.2 17.8 -15.4Q17.4 -15.65 16.75 -15.75L11.4 -15.9L9.45 -3.25Q10.8 -2.35 14.3 -1.9L14.05 0L0 0L0.3 -1.9Q3.3 -2.3 4.85 -3.25L9.3 -30.9Q7.65 -31.85 4.95 -32.25L5.2 -34.15L27.7 -34.15L26.85 -26.4z" />
</g>
<g id="PathID_29" transform="matrix(0.735685, 0, 0, 0.735685, 74.7, 144.6)" opacity="1">
<path style="fill:#006C07;fill-opacity:1" d="M15.25 0L15.55 -1.85Q18.55 -2.25 20.15 -3.2L20.4 -3.2L19.25 -11L9.7 -11L6.3 -3.15Q7.95 -2.3 11.2 -1.85L10.95 0L-1.1 0L-0.85 -1.85Q1.75 -2.3 2.9 -3.05L16.8 -34.15L20.15 -34.15L25.35 -3.15Q26.55 -2.3 29 -1.85L28.8 0L15.25 0M16.75 -27.3L10.85 -13.65L18.8 -13.65L16.75 -27.3" />
</g>
<g id="PathID_30" transform="matrix(0.735685, 0, 0, 0.735685, 74.7, 144.6)" opacity="1">
<path style="fill:none;stroke-width:1;stroke-linecap:round;stroke-linejoin:round;stroke-miterlimit:3;stroke:#004700;stroke-opacity:1" d="M15.25 0L15.5 -1.9Q18.5 -2.3 20.15 -3.25L20.4 -3.25L19.25 -11L9.65 -11L6.25 -3.15Q7.9 -2.3 11.15 -1.9L10.95 0L-1.1 0L-0.8 -1.9Q1.7 -2.3 2.85 -3.05L16.8 -34.15L20.15 -34.15L25.3 -3.15Q26.5 -2.3 28.95 -1.9L28.75 0L15.25 0z" />
<path style="fill:none;stroke-width:1;stroke-linecap:round;stroke-linejoin:round;stroke-miterlimit:3;stroke:#004700;stroke-opacity:1" d="M16.75 -27.3L10.8 -13.65L18.75 -13.65L16.75 -27.3z" />
</g>
<g id="PathID_31" transform="matrix(0.735685, 0, 0, 0.735685, 96.8, 144.6)" opacity="1">
<path style="fill:#006C07;fill-opacity:1" d="M19.8 -34.55Q25.65 -34.55 28.3 -31.45Q31 -28.35 31 -22.15Q31 -13.75 27.4 -7.4Q23.85 -1.1 17.2 0.15Q17.7 2.5 19.45 4.3Q21.25 6.15 23.85 7.1Q23.75 8.15 23.05 8.65Q15.4 7.3 13.1 0.35Q3.1 -0.25 3.1 -11.95Q3.1 -19.2 5.7 -24.85Q8.55 -30.95 13.7 -33.25Q16.45 -34.55 19.8 -34.55M14 -2Q19.2 -2 22.6 -7.75Q26 -13.55 26 -22.8Q26 -27.4 24.6 -29.75Q23.2 -32.1 20.15 -32.1Q14.95 -32.1 11.55 -26.25Q8.15 -20.45 8.15 -11.2Q8.15 -2 14 -2" />
</g>
<g id="PathID_32" transform="matrix(0.735685, 0, 0, 0.735685, 96.8, 144.6)" opacity="1">
<path style="fill:none;stroke-width:1;stroke-linecap:round;stroke-linejoin:round;stroke-miterlimit:3;stroke:#004700;stroke-opacity:1" d="M19.8 -34.55Q25.65 -34.55 28.3 -31.45Q31 -28.4 31 -22.15Q31 -13.75 27.4 -7.4Q23.8 -1.15 17.2 0.1Q17.65 2.4 19.45 4.25Q21.2 6.1 23.8 7.05Q23.7 8.05 23.05 8.6Q15.35 7.25 13.05 0.3Q3.05 -0.25 3.05 -11.95Q3.05 -19.2 5.65 -24.85Q8.5 -30.95 13.65 -33.3Q16.45 -34.55 19.8 -34.55z" />
<path style="fill:none;stroke-width:1;stroke-linecap:round;stroke-linejoin:round;stroke-miterlimit:3;stroke:#004700;stroke-opacity:1" d="M13.95 -2Q19.15 -2 22.55 -7.8Q25.95 -13.55 25.95 -22.8Q25.95 -27.45 24.55 -29.75Q23.2 -32.1 20.1 -32.1Q14.9 -32.1 11.5 -26.3Q8.1 -20.45 8.1 -11.2Q8.1 -2 13.95 -2z" />
</g>
<filter id="filter6" x="-0.521857" y="-0.521857" width="2.2411" height="2.24373" >
<feComponentTransfer in="SourceGraphic">
	<feFuncR type="linear" slope="0"/>
	<feFuncG type="linear" slope="0"/>
	<feFuncB type="linear" slope="0"/>
</feComponentTransfer>
<feGaussianBlur stdDeviation="0.6 0.6" />
<feOffset dx="2.12135" dy="2.12129"/>
<feComponentTransfer result="4">
	<feFuncR type="linear" Ue="0" intercept="0.101961"/>
	<feFuncG type="linear" Ue="0" intercept="0.352941"/>
	<feFuncB type="linear" Ue="0" intercept="0.113725"/>
	<feFuncA type="linear" xh="0" slope="2"/>
</feComponentTransfer>
<feComposite result="5"  in="SourceGraphic" in2="4" operator="over"/>
</filter>
<g style="filter:url(#filter6);">
<g id="PathID_33" transform="matrix(0.819404, 0, 0, 0.819404, 332.65, 76.9)" opacity="1">
<path style="fill:#00A60B;fill-opacity:1" d="M127.45 16.95L101.3 20.8L104.55 42.5L130.4 38.95L127.45 16.95M133.35 4.45L150 123.05Q150.3 123.65 149.7 124.2L148.8 124.8L125.35 128.1L122.1 128.4L120 128.4L114.95 128.7Q110.5 129 109.3 129.55Q109 129.25 109 128.7L92.4 10.4Q92.1 9.8 92.4 9.25L93.55 8.65L131.6 3.3L132.75 3.6L133.35 4.45M90.9 0.6Q91.2 0.9 91.2 1.8L91.2 128.7L91.2 129.25Q86.15 129 80.5 129Q67.7 129 58.8 129.55L52.85 130.15L51.1 130.15L48.1 129.85L47.8 129.55Q47.25 129.25 47.25 128.7L47.25 1.8Q47.25 0.9 47.8 0.6Q48.1 0 49 0L89.7 0Q90.3 0 90.9 0.6M83.15 14L55.25 14L55.25 37.45L83.15 37.45L83.15 14M41.6 8.95L41.6 128.7L41.3 129.25Q34.45 129 25.25 129Q13.35 129 5.05 129.55L0.9 130.15L0.3 129.55Q0 129.25 0 128.7L0 8.95Q0 8.35 0.3 8.05Q0.9 7.45 1.5 7.45L39.8 7.45Q40.7 7.45 41 8.05Q41.6 8.35 41.6 8.95M33.85 20.5L7.4 20.5L7.4 42.5L33.85 42.5L33.85 20.5M79.3 108.2Q79.3 104 76.35 101.05Q73.35 98.05 69.2 98.05Q65.05 98.05 62.1 101.05Q59.1 104 59.1 108.2Q59.1 112.35 62.1 115.3Q65.05 118.3 69.2 118.3Q73.65 118.3 76.35 115.3Q79.3 112.35 79.3 108.2M27.9 115.3Q30.9 112.35 30.9 108.2Q30.9 104 27.9 101.05Q24.95 98.05 20.8 98.05Q16.65 98.05 13.65 101.05Q10.7 104 10.7 108.2Q10.7 112.35 13.65 115.3Q16.65 118.3 20.8 118.3Q24.95 118.3 27.9 115.3M134.85 101.05Q131.9 98.05 127.7 98.05Q123.55 98.05 120.6 101.05Q117.6 104 117.6 108.2Q117.6 112.35 120.6 115.3Q123.55 118.3 127.7 118.3Q131.9 118.3 134.85 115.3Q137.8 112.35 137.8 108.2Q137.8 104 134.85 101.05" />
</g>
<g id="PathID_34" transform="matrix(0.819404, 0, 0, 0.819404, 332.65, 76.9)" opacity="1">
</g>
</g>
<g id="PathID_35" transform="matrix(-0.562468, -4.91725e-008, 0, 0.504205, 163.8, 32.15)" opacity="1">
<path style="fill:#004700;fill-opacity:1" d="M76.15 35.15Q76.15 40.05 71.6 40.05L40.8 40.4Q36.25 40.95 36.25 46.55L36.25 143.5Q36.25 150 30.9 150Q25.4 150 25.4 143.5L25.4 91.45Q25.4 88.8 24 88.8Q22.15 88.8 22.15 91.45L22.15 143.5Q22.15 150 17.1 150Q11.75 150 11.75 143.5L11.75 55.3Q11.75 51.7 10 51.7Q7.8 51.7 7.8 55.3L7.8 81.1Q7.8 87.4 4.2 87.4Q0 87.4 0 81.1L0 47.6Q0 37.25 4.3 32.7Q8.5 28.95 15.95 28.95L71.6 30.7Q76.15 30.7 76.15 35.15M33.2 11.9Q33.2 16.8 30.4 20.45Q27.6 24.3 23.65 24.3Q19.45 24.3 16.55 20.45Q13.6 16.95 13.6 11.9Q13.6 6.8 16.55 3.4Q19.7 0 23.65 0Q27.6 0 30.4 3.4Q33.2 7.35 33.2 11.9" />
</g>
<g id="PathID_36" transform="matrix(-0.562468, -4.91725e-008, 0, 0.504205, 163.8, 32.15)" opacity="1">
</g>
<g id="PathID_37" transform="matrix(1, 0, 0, 1, 267.95, -206.5)" opacity="1">
<path style="fill:#004700;fill-opacity:1" d="M85.15 35.45Q85.15 50 72.1 58.2Q68.5 60.3 60.9 63.35Q54.55 65.75 51.8 68.2Q47.85 71.85 45.75 78.5L40.9 96.7Q36.65 106.7 26.95 106.4Q10.9 106.05 10.9 90Q10.9 81.2 16.05 71.85Q20 64.55 24.85 61.2Q35.15 54.55 39.1 49.4Q42.1 45.75 41.5 42.75Q41.5 40.3 37.85 39.1Q35.15 37.9 32.4 37.9Q26.95 37.9 20.9 43.95Q14.85 50 11.5 50Q10.3 50 9.1 49.4Q-0.3 44.85 0 37Q0.9 21.55 19.7 7.9Q27.85 1.55 33.95 0.3L41.5 0Q47.25 0.3 49.4 0L52.4 0Q61.5 0 70 6.4Q77.55 12.45 81.8 21.2Q85.15 28.2 85.15 35.45M61.5 17.9Q60.3 17 57.85 17.6Q53.65 18.2 53 21.2Q52.4 24.55 55.15 25.75Q60.3 28.5 64.55 27.3Q67.55 26.7 67.55 24.25Q67.55 23.35 66.95 21.55Q63.95 19.1 61.5 17.9M68.5 30.9Q64.85 30.9 64.85 34.25Q64.85 37.3 68.5 37.3Q72.1 37.3 72.1 34.25Q72.1 30.9 68.5 30.9M20.6 115.75Q23.35 114.85 25.75 114.85Q31.2 114.85 35.75 119.4Q40.6 124.25 40.6 129.4Q40.6 132.15 39.4 135.15Q35.45 144.25 29.7 146.7Q21.8 150.3 20.3 150Q9.1 147.9 7.25 140.6Q6.95 138.2 6.95 136.05Q6.95 129.4 10.6 124.25Q14.55 118.8 20.6 115.75" />
</g>
<g id="PathID_38" transform="matrix(1, 0, 0, 1, 267.95, -206.5)" opacity="1">
</g>
<g id="PathID_39" transform="matrix(0.542857, 0, 0, 0.542857, 48.45, 22.7)" opacity="1">
<path style="fill:#004700;fill-opacity:1" d="M91.6 90.5L132.1 90.5L129.7 98L66.1 98Q63.1 96.5 59.8 95.3L61.9 90.5L85.3 90.5L85.6 90.8L90.1 93.5L91.6 90.5M94.6 77.3L134.2 77.3L133 86.9L92.8 86.9Q94 82.7 94.6 77.3M94.9 68L94.9 65.9L134.5 65.9L134.5 68.3L134.5 74.6L94.9 74.6L94.9 68M94.9 63.5Q94 47.6 87.7 40.4Q80.2 32 67.6 32Q55.6 32 48.4 40.4Q41.8 48.2 41.2 63.5L1.3 63.5Q2.5 35.6 18.7 19.4Q36.1 1.7 67.6 1.7Q99.7 1.7 117.1 19.1Q133.3 35 134.5 63.5L94.9 63.5M3.7 90.5L44.5 90.5Q46 94.1 48.1 96.8L49.3 98L6.1 98Q4.6 94.4 3.7 90.5M1 68.9L1 65.9L40.9 65.9L40.9 67.1Q40.9 71 41.2 74.6L1.3 74.6Q1 71.9 1 68.9M1.3 77.3L41.5 77.3Q42.1 82.7 43.3 86.9L2.8 86.9Q1.9 82.4 1.3 77.3M65.8 80.9Q71.2 81.8 74.2 83.3L80.2 86.9L63.4 86.9L65.8 80.9M75.4 104.3L73.9 102.8L127.6 102.8L124.9 107.6L10.9 107.6Q9.4 105.2 8.2 102.8L55.9 102.8Q61.3 105.2 67.9 105.2L75.4 104.3M16.3 114.5L121.3 114.5L127.9 119L20.5 119Q18.1 116.9 16.3 114.5M30.4 126.2L139 126.2L128.5 147.2Q120.1 143.3 112 137.6Q103.6 132.2 100.6 129.2Q87.4 134.9 67.3 134.9Q45.4 134.9 30.4 126.2" />
</g>
<g id="PathID_40" transform="matrix(0.542857, 0, 0, 0.542857, 48.45, 22.7)" opacity="1">
</g>
</svg>
