<?xml version="1.0" encoding="utf-8"?>
<svg version="1.1" id="Layer_1"
xmlns="http://www.w3.org/2000/svg"
xmlns:xlink="http://www.w3.org/1999/xlink"
width="200px" height="200px"
xml:space="preserve">
<filter id="filter3" x="-0.521857" y="-0.521857" width="2.26366" height="2.26113" >
<feComponentTransfer in="SourceGraphic">
	<feFuncR type="linear" slope="0"/>
	<feFuncG type="linear" slope="0"/>
	<feFuncB type="linear" slope="0"/>
</feComponentTransfer>
<feGaussianBlur stdDeviation="0.6 0.6" />
<feOffset dx="7.07116" dy="7.07098"/>
<feComponentTransfer result="1">
	<feFuncR type="linear" Ue="0" intercept="0"/>
	<feFuncG type="linear" Ue="0" intercept="0"/>
	<feFuncB type="linear" Ue="0" intercept="0"/>
	<feFuncA type="linear" xh="0" slope="0.300781"/>
</feComponentTransfer>
<feComposite result="2"  in="SourceGraphic" in2="1" operator="over"/>
</filter>
<g style="filter:url(#filter3);">
<g id="PathID_1" transform="matrix(1.97465, 0, 0, 1.83413, 98.05, 94.5)" opacity="1">
<path style="fill:#FFFFFF;fill-opacity:1" d="M44.1 -25.9L44.4 25.9L0 51.1L-44.1 25.9L-44.4 -25.9L0 -51.1L44.1 -25.9" />
</g>
<g id="PathID_2" transform="matrix(1.97465, 0, 0, 1.83413, 98.05, 94.5)" opacity="1">
<path style="fill:none;stroke-width:1;stroke-linecap:round;stroke-linejoin:round;stroke-miterlimit:3;stroke:#004700;stroke-opacity:1" d="M0 -51.05L-44.4 -25.9L-44.1 25.9L0 51.1L44.35 25.9L44.05 -25.9L0 -51.05z" />
</g>
</g>
<filter id="filter6" x="-0.529762" y="-0.529762" width="2.27119" height="2.27118" >
<feComponentTransfer in="SourceGraphic">
	<feFuncR type="linear" slope="0"/>
	<feFuncG type="linear" slope="0"/>
	<feFuncB type="linear" slope="0"/>
</feComponentTransfer>
<feGaussianBlur stdDeviation="1 1" />
<feOffset dx="2.12135" dy="2.12129"/>
<feComponentTransfer result="4">
	<feFuncR type="linear" Ue="0" intercept="0"/>
	<feFuncG type="linear" Ue="0" intercept="0"/>
	<feFuncB type="linear" Ue="0" intercept="0"/>
	<feFuncA type="linear" xh="0" slope="0.5"/>
</feComponentTransfer>
<feComposite result="5"  in="SourceGraphic" in2="4" operator="over"/>
</filter>
<g style="filter:url(#filter6);">
<g id="PathID_3" transform="matrix(1.4752, -0.142989, 0.142989, 1.4752, 35.2, 55.75)" opacity="1">
<path style="fill:#004700;fill-opacity:0.898039" d="M7.8 -22L14 -18.7L12.1 -13.1L15.25 -9.2L21.1 -10.05L23.1 -3.35L17.75 -0.8Q17.9 1.8 17.35 4.25L22 7.8L18.7 14L13.1 12.1Q11.4 13.9 9.2 15.25L10.05 21.1L3.35 23.1L0.8 17.75L-4.25 17.35L-7.8 22L-14 18.7L-12.1 13.1L-15.25 9.2L-21.1 10.05L-23.1 3.35L-17.75 0.8L-17.3 -4.2L-22 -7.8L-18.7 -14L-13.15 -12.05Q-11.4 -13.9 -9.2 -15.25L-10.05 -21.1L-3.35 -23.1L-0.8 -17.75L4.2 -17.3L7.8 -22M3.8 -7.1Q0.85 -8.65 -2.35 -7.7Q-5.55 -6.75 -7.1 -3.8Q-8.65 -0.85 -7.7 2.35Q-6.75 5.55 -3.8 7.1Q-0.85 8.65 2.35 7.7Q5.55 6.75 7.1 3.8Q8.65 0.85 7.7 -2.35Q6.75 -5.55 3.8 -7.1" />
</g>
<g id="PathID_4" transform="matrix(1.4752, -0.142989, 0.142989, 1.4752, 35.2, 55.75)" opacity="1">
</g>
</g>
<g id="PathID_5" transform="matrix(0.34945, 0, 0, 0.34945, -24.3, 306.8)" opacity="1">
<path style="fill:#868485;fill-opacity:1" d="M29.85 -37.25L17.25 -16.45L17.25 0L12.3 0L12.3 -15.95L-0.3 -37.25L5.2 -37.25L14.8 -20.85L24.55 -37.25L29.85 -37.25" />
</g>
<g id="PathID_6" transform="matrix(0.34945, 0, 0, 0.34945, -24.3, 306.8)" opacity="1">
</g>
<g id="PathID_7" transform="matrix(0.34945, 0, 0, 0.34945, -14.15, 306.8)" opacity="1">
<path style="fill:#868485;fill-opacity:1" d="M26.35 -13.95Q26.35 -6.85 22.95 -3Q19.55 0.8 13.9 0.8Q8.1 0.8 4.75 -3.15Q1.45 -7.1 1.45 -13.95Q1.45 -20.95 4.85 -24.85Q8.3 -28.75 13.9 -28.75Q19.55 -28.75 22.95 -24.85Q26.35 -21 26.35 -13.95M21.5 -13.95Q21.5 -19.35 19.5 -22Q17.55 -24.65 13.9 -24.65Q10.25 -24.65 8.25 -22Q6.3 -19.35 6.3 -13.95Q6.3 -8.7 8.25 -6Q10.25 -3.3 13.9 -3.3Q17.5 -3.3 19.5 -5.95Q21.5 -8.6 21.5 -13.95" />
</g>
<g id="PathID_8" transform="matrix(0.34945, 0, 0, 0.34945, -14.15, 306.8)" opacity="1">
</g>
<g id="PathID_9" transform="matrix(0.34945, 0, 0, 0.34945, -3.5, 306.8)" opacity="1">
<path style="fill:#868485;fill-opacity:1" d="M25.15 0L20.45 0L20.45 -3.05Q18.25 -1.15 16.3 -0.15Q14.35 0.8 11.95 0.8Q10.15 0.8 8.5 0.2Q6.9 -0.4 5.7 -1.7Q4.5 -3 3.85 -4.95Q3.2 -6.95 3.2 -9.75L3.2 -27.95L7.9 -27.95L7.9 -12Q7.9 -9.8 8.05 -8.3Q8.2 -6.85 8.8 -5.75Q9.35 -4.7 10.35 -4.2Q11.35 -3.7 13.2 -3.7Q14.9 -3.7 16.85 -4.65Q18.8 -5.6 20.45 -7.05L20.45 -27.95L25.15 -27.95L25.15 0" />
</g>
<g id="PathID_10" transform="matrix(0.34945, 0, 0, 0.34945, -3.5, 306.8)" opacity="1">
</g>
<g id="PathID_11" transform="matrix(0.34945, 0, 0, 0.34945, 7.3, 306.8)" opacity="1">
<path style="fill:#868485;fill-opacity:1" d="M18.2 -22.85L17.95 -22.85L16.8 -23L15.4 -23.05Q13.5 -23.05 11.6 -22.2Q9.75 -21.4 8.1 -19.75L8.1 0L3.4 0L3.4 -27.95L8.1 -27.95L8.1 -23.75Q10.65 -26.05 12.55 -27Q14.5 -27.95 16.3 -27.95L17.35 -27.9L18.2 -27.75L18.2 -22.85" />
</g>
<g id="PathID_12" transform="matrix(0.34945, 0, 0, 0.34945, 7.3, 306.8)" opacity="1">
</g>
<g id="PathID_13" transform="matrix(0.34945, 0, 0, 0.34945, 14.65, 306.8)" opacity="1">
<path style="fill:#868485;fill-opacity:1" d="M12.5 0L12.5 -32.85L0 -32.85L0 -37.25L29.95 -37.25L29.95 -32.85L17.45 -32.85L17.45 0L12.5 0" />
</g>
<g id="PathID_14" transform="matrix(0.34945, 0, 0, 0.34945, 14.65, 306.8)" opacity="1">
</g>
<g id="PathID_15" transform="matrix(0.34945, 0, 0, 0.34945, 24.15, 306.8)" opacity="1">
<path style="fill:#868485;fill-opacity:1" d="M15.5 0.65Q8.8 0.65 5.1 -3.1Q1.45 -6.85 1.45 -13.8Q1.45 -20.65 5 -24.7Q8.6 -28.75 14.35 -28.75Q16.95 -28.75 18.95 -27.95Q20.95 -27.2 22.45 -25.6Q23.95 -24 24.75 -21.7Q25.6 -19.4 25.6 -16.05L25.6 -13.5L6.25 -13.5Q6.25 -8.6 8.7 -6Q11.15 -3.45 15.45 -3.45Q17 -3.45 18.5 -3.8Q20 -4.15 21.2 -4.7Q22.45 -5.25 23.3 -5.8Q24.2 -6.35 24.8 -6.85L25.1 -6.85L25.1 -1.7L23 -0.85L20.8 -0.1Q19.45 0.25 18.3 0.45Q17.2 0.65 15.5 0.65M21 -17.1Q20.95 -19 20.55 -20.35Q20.15 -21.75 19.4 -22.7Q18.55 -23.75 17.25 -24.3Q16 -24.85 14.1 -24.85Q12.2 -24.85 10.9 -24.25Q9.6 -23.7 8.5 -22.65Q7.45 -21.55 6.9 -20.2Q6.4 -18.85 6.25 -17.1L21 -17.1" />
</g>
<g id="PathID_16" transform="matrix(0.34945, 0, 0, 0.34945, 24.15, 306.8)" opacity="1">
</g>
<g id="PathID_17" transform="matrix(0.34945, 0, 0, 0.34945, 34.5, 306.8)" opacity="1">
<path style="fill:#868485;fill-opacity:1" d="M25.1 0L19.3 0L12.55 -10.5L5.55 0L0.25 0L9.9 -13.85L0.35 -27.95L6.1 -27.95L12.8 -17.5L19.75 -27.95L25.1 -27.95L15.45 -14.15L25.1 0" />
</g>
<g id="PathID_18" transform="matrix(0.34945, 0, 0, 0.34945, 34.5, 306.8)" opacity="1">
</g>
<g id="PathID_19" transform="matrix(0.34945, 0, 0, 0.34945, 44.3, 306.8)" opacity="1">
<path style="fill:#868485;fill-opacity:1" d="M11.85 0.55Q8 0.55 5.85 -1.6Q3.7 -3.8 3.7 -8.5L3.7 -24L0.55 -24L0.55 -27.95L3.7 -27.95L3.7 -36L8.4 -36L8.4 -27.95L17.1 -27.95L17.1 -24L8.4 -24L8.4 -10.7L8.45 -7.45Q8.55 -6.3 9.05 -5.3Q9.45 -4.4 10.4 -3.95Q11.35 -3.55 13 -3.55Q14.15 -3.55 15.2 -3.85Q16.3 -4.2 16.8 -4.45L17.1 -4.45L17.1 -0.2Q15.75 0.15 14.35 0.35Q13 0.55 11.85 0.55" />
</g>
<g id="PathID_20" transform="matrix(0.34945, 0, 0, 0.34945, 44.3, 306.8)" opacity="1">
</g>
<g id="PathID_21" transform="matrix(0.34945, 0, 0, 0.34945, 51.25, 306.8)" opacity="1">
<path style="fill:#868485;fill-opacity:1" d="M30.8 0L25.85 0L25.85 -18.25L8.75 -18.25L8.75 0L3.8 0L3.8 -37.25L8.75 -37.25L8.75 -22.65L25.85 -22.65L25.85 -37.25L30.8 -37.25L30.8 0" />
</g>
<g id="PathID_22" transform="matrix(0.34945, 0, 0, 0.34945, 51.25, 306.8)" opacity="1">
</g>
<g id="PathID_23" transform="matrix(0.34945, 0, 0, 0.34945, 64.25, 306.8)" opacity="1">
<path style="fill:#868485;fill-opacity:1" d="M15.5 0.65Q8.8 0.65 5.1 -3.1Q1.45 -6.85 1.45 -13.8Q1.45 -20.65 5 -24.7Q8.6 -28.75 14.35 -28.75Q16.95 -28.75 18.95 -27.95Q20.95 -27.2 22.45 -25.6Q23.95 -24 24.75 -21.7Q25.6 -19.4 25.6 -16.05L25.6 -13.5L6.25 -13.5Q6.25 -8.6 8.7 -6Q11.15 -3.45 15.45 -3.45Q17 -3.45 18.5 -3.8Q20 -4.15 21.2 -4.7Q22.45 -5.25 23.3 -5.8Q24.2 -6.35 24.8 -6.85L25.1 -6.85L25.1 -1.7L23 -0.85L20.8 -0.1Q19.45 0.25 18.3 0.45Q17.2 0.65 15.5 0.65M21 -17.1Q20.95 -19 20.55 -20.35Q20.15 -21.75 19.4 -22.7Q18.55 -23.75 17.25 -24.3Q16 -24.85 14.1 -24.85Q12.2 -24.85 10.9 -24.25Q9.6 -23.7 8.5 -22.65Q7.45 -21.55 6.9 -20.2Q6.4 -18.85 6.25 -17.1L21 -17.1" />
</g>
<g id="PathID_24" transform="matrix(0.34945, 0, 0, 0.34945, 64.25, 306.8)" opacity="1">
</g>
<g id="PathID_25" transform="matrix(0.34945, 0, 0, 0.34945, 74.6, 306.8)" opacity="1">
<path style="fill:#868485;fill-opacity:1" d="M18.2 -22.85L17.95 -22.85L16.8 -23L15.4 -23.05Q13.5 -23.05 11.6 -22.2Q9.75 -21.4 8.1 -19.75L8.1 0L3.4 0L3.4 -27.95L8.1 -27.95L8.1 -23.75Q10.65 -26.05 12.55 -27Q14.5 -27.95 16.3 -27.95L17.35 -27.9L18.2 -27.75L18.2 -22.85" />
</g>
<g id="PathID_26" transform="matrix(0.34945, 0, 0, 0.34945, 74.6, 306.8)" opacity="1">
</g>
<g id="PathID_27" transform="matrix(0.34945, 0, 0, 0.34945, 81.9, 306.8)" opacity="1">
<path style="fill:#868485;fill-opacity:1" d="M15.5 0.65Q8.8 0.65 5.1 -3.1Q1.45 -6.85 1.45 -13.8Q1.45 -20.65 5 -24.7Q8.6 -28.75 14.35 -28.75Q16.95 -28.75 18.95 -27.95Q20.95 -27.2 22.45 -25.6Q23.95 -24 24.75 -21.7Q25.6 -19.4 25.6 -16.05L25.6 -13.5L6.25 -13.5Q6.25 -8.6 8.7 -6Q11.15 -3.45 15.45 -3.45Q17 -3.45 18.5 -3.8Q20 -4.15 21.2 -4.7Q22.45 -5.25 23.3 -5.8Q24.2 -6.35 24.8 -6.85L25.1 -6.85L25.1 -1.7L23 -0.85L20.8 -0.1Q19.45 0.25 18.3 0.45Q17.2 0.65 15.5 0.65M21 -17.1Q20.95 -19 20.55 -20.35Q20.15 -21.75 19.4 -22.7Q18.55 -23.75 17.25 -24.3Q16 -24.85 14.1 -24.85Q12.2 -24.85 10.9 -24.25Q9.6 -23.7 8.5 -22.65Q7.45 -21.55 6.9 -20.2Q6.4 -18.85 6.25 -17.1L21 -17.1" />
</g>
<g id="PathID_28" transform="matrix(0.34945, 0, 0, 0.34945, 81.9, 306.8)" opacity="1">
</g>
<filter id="filter9" x="-0.529762" y="-0.529762" width="2.29686" height="2.29686" >
<feComponentTransfer in="SourceGraphic">
	<feFuncR type="linear" slope="0"/>
	<feFuncG type="linear" slope="0"/>
	<feFuncB type="linear" slope="0"/>
</feComponentTransfer>
<feGaussianBlur stdDeviation="1 1" />
<feOffset dx="2.12135" dy="2.12129"/>
<feComponentTransfer result="7">
	<feFuncR type="linear" Ue="0" intercept="0"/>
	<feFuncG type="linear" Ue="0" intercept="0"/>
	<feFuncB type="linear" Ue="0" intercept="0"/>
	<feFuncA type="linear" xh="0" slope="0.5"/>
</feComponentTransfer>
<feComposite result="8"  in="SourceGraphic" in2="7" operator="over"/>
</filter>
<g style="filter:url(#filter9);">
<g id="PathID_29" transform="matrix(0.757483, 0.282483, -0.282483, 0.757483, 71.5, 21.5)" opacity="1">
<path style="fill:#004700;fill-opacity:0.898039" d="M7.8 -22L14 -18.7L12.1 -13.1L15.25 -9.2L21.1 -10.05L23.1 -3.35L17.75 -0.8Q17.9 1.8 17.35 4.25L22 7.8L18.7 14L13.1 12.1Q11.4 13.9 9.2 15.25L10.05 21.1L3.35 23.1L0.8 17.75L-4.25 17.35L-7.8 22L-14 18.7L-12.1 13.1L-15.25 9.2L-21.1 10.05L-23.1 3.35L-17.75 0.8L-17.3 -4.2L-22 -7.8L-18.7 -14L-13.15 -12.05Q-11.4 -13.9 -9.2 -15.25L-10.05 -21.1L-3.35 -23.1L-0.8 -17.75L4.2 -17.3L7.8 -22M3.8 -7.1Q0.85 -8.65 -2.35 -7.7Q-5.55 -6.75 -7.1 -3.8Q-8.65 -0.85 -7.7 2.35Q-6.75 5.55 -3.8 7.1Q-0.85 8.65 2.35 7.7Q5.55 6.75 7.1 3.8Q8.65 0.85 7.7 -2.35Q6.75 -5.55 3.8 -7.1" />
</g>
<g id="PathID_30" transform="matrix(0.757483, 0.282483, -0.282483, 0.757483, 71.5, 21.5)" opacity="1">
</g>
</g>
<g id="PathID_31" transform="matrix(0.735685, 0, 0, 0.735685, 14.9, 143)" opacity="1">
<path style="fill:#006C07;fill-opacity:1" d="M14.05 0.45Q9.35 0.45 6.45 -2.45Q3.55 -5.4 3.55 -11.8Q3.55 -18.25 5.35 -23.3Q7.15 -28.4 10.95 -31.45Q14.75 -34.55 20.2 -34.55Q24.2 -34.55 26.4 -32.8Q28.6 -31.1 28.6 -28.6Q28.6 -26.9 27.7 -25.5Q26.85 -24.15 25.5 -24.15Q24.2 -24.15 23.45 -24.7Q22.7 -25.25 22.65 -26.15Q23.7 -27.25 23.7 -28.6Q23.7 -30 22.65 -30.95Q21.6 -31.9 19.7 -31.9Q16.05 -31.9 13.45 -28.85Q8.55 -23.05 8.55 -10.9Q8.55 -2.5 14.75 -2.5Q17.85 -2.5 19.95 -3.6Q21.25 -4.35 21.5 -5.45L22.55 -12.05Q20.45 -12.7 17.55 -13L17.85 -15.15L27.15 -15.15L25.05 -2.8Q20.2 0.45 14.05 0.45" />
</g>
<g id="PathID_32" transform="matrix(0.735685, 0, 0, 0.735685, 14.9, 143)" opacity="1">
<path style="fill:none;stroke-width:1;stroke-linecap:round;stroke-linejoin:round;stroke-miterlimit:3;stroke:#004700;stroke-opacity:1" d="M14 0.4Q9.3 0.4 6.35 -2.45Q3.5 -5.4 3.5 -11.75Q3.5 -18.25 5.3 -23.25Q7.1 -28.35 10.9 -31.4Q14.75 -34.55 20.15 -34.55Q24.15 -34.55 26.35 -32.75Q28.5 -31.1 28.5 -28.55Q28.5 -26.85 27.65 -25.5Q26.8 -24.15 25.45 -24.15Q24.15 -24.15 23.45 -24.7Q22.7 -25.25 22.6 -26.1Q23.65 -27.2 23.65 -28.55Q23.65 -30 22.6 -30.95Q21.5 -31.9 19.6 -31.9Q16 -31.9 13.35 -28.85Q8.45 -23.05 8.45 -10.9Q8.45 -2.45 14.75 -2.45Q17.8 -2.45 19.9 -3.55Q21.2 -4.35 21.45 -5.45L22.45 -12.05Q20.35 -12.65 17.5 -13L17.8 -15.1L27.1 -15.1L25 -2.8Q20.15 0.4 14 0.4z" />
</g>
<g id="PathID_33" transform="matrix(0.735685, 0, 0, 0.735685, 36.9, 143)" opacity="1">
<path style="fill:#006C07;fill-opacity:1" d="M5.7 -19.4Q5.7 -20.45 4.95 -20.75Q4.2 -21.05 2.5 -21.05L2.25 -22.75L9.5 -24.35L10.8 -23.05L9.1 -13.55Q7.9 -6.65 7.9 -5.4Q7.9 -4.2 8.65 -3.3Q9.4 -2.4 10.6 -2.4Q13.6 -2.4 15.8 -6.4Q18 -10.4 18.8 -15.65L20.2 -24.25L24.55 -24.25L21.4 -4.3L21.4 -4Q21.4 -3.15 22.4 -3.15Q23.4 -3.15 25.05 -4.1L25.6 -2.5Q22.25 0.4 19.75 0.4Q18 0.4 17.4 -0.25Q16.85 -0.95 16.85 -1.75Q16.85 -2.55 17.45 -5.9Q14 0.4 9.2 0.4Q6.45 0.4 4.9 -1.05Q3.4 -2.5 3.4 -5.1L3.5 -6.45Q5.7 -18.95 5.7 -19.4" />
</g>
<g id="PathID_34" transform="matrix(0.735685, 0, 0, 0.735685, 36.9, 143)" opacity="1">
<path style="fill:none;stroke-width:1;stroke-linecap:round;stroke-linejoin:round;stroke-miterlimit:3;stroke:#004700;stroke-opacity:1" d="M5.6 -19.4Q5.6 -20.4 4.9 -20.75Q4.15 -21 2.45 -21L2.25 -22.7L9.45 -24.35L10.7 -23.05L9 -13.55Q7.85 -6.6 7.85 -5.4Q7.85 -4.15 8.6 -3.3Q9.35 -2.4 10.5 -2.4Q13.6 -2.4 15.75 -6.4Q17.9 -10.4 18.75 -15.65L20.15 -24.2L24.5 -24.2L21.3 -4.3L21.3 -3.95Q21.3 -3.15 22.35 -3.15Q23.35 -3.15 25 -4.1L25.55 -2.45Q22.2 0.35 19.7 0.35Q17.9 0.35 17.4 -0.2Q16.75 -0.9 16.75 -1.7Q16.75 -2.55 17.4 -5.85Q13.9 0.35 9.15 0.35Q6.35 0.35 4.9 -1.05Q3.4 -2.45 3.4 -5.1L3.45 -6.4Q5.6 -18.9 5.6 -19.4z" />
</g>
<g id="PathID_35" transform="matrix(0.735685, 0, 0, 0.735685, 57.05, 143)" opacity="1">
<path style="fill:#006C07;fill-opacity:1" d="M5.4 -19.4Q5.4 -20.45 4.65 -20.75Q3.9 -21.05 2.2 -21.05L1.9 -22.75L9.2 -24.35L10.45 -23.05Q7.5 -5.25 7.5 -4.4Q7.5 -3.6 7.65 -3.35Q7.85 -3.15 8.65 -3.15Q9.45 -3.15 11.1 -4.1L11.6 -2.5Q8.25 0.4 5.7 0.4Q3.95 0.4 3.4 -0.25Q2.85 -0.95 2.85 -2.05Q2.85 -3.15 4.1 -11.15L5.4 -19.4M11.7 -30.95Q11.7 -29.55 10.85 -28.55Q10 -27.6 8.8 -27.6Q6.25 -27.6 6.25 -29.95Q6.25 -31.6 7.1 -32.55Q7.95 -33.55 9.15 -33.55Q10.4 -33.55 11.05 -32.95Q11.7 -32.35 11.7 -30.95" />
</g>
<g id="PathID_36" transform="matrix(0.735685, 0, 0, 0.735685, 57.05, 143)" opacity="1">
<path style="fill:none;stroke-width:1;stroke-linecap:round;stroke-linejoin:round;stroke-miterlimit:3;stroke:#004700;stroke-opacity:1" d="M5.4 -19.4Q5.4 -20.4 4.65 -20.75Q3.9 -21 2.2 -21L1.85 -22.7L9.2 -24.35L10.4 -23.05Q7.5 -5.25 7.5 -4.35Q7.5 -3.55 7.65 -3.35Q7.85 -3.15 8.65 -3.15Q9.45 -3.15 11.1 -4.1L11.6 -2.45Q8.25 0.35 5.65 0.35Q3.95 0.35 3.4 -0.2Q2.8 -0.9 2.8 -2.05Q2.8 -3.15 4.1 -11.15L5.4 -19.4z" />
<path style="fill:none;stroke-width:1;stroke-linecap:round;stroke-linejoin:round;stroke-miterlimit:3;stroke:#004700;stroke-opacity:1" d="M11.7 -30.95Q11.7 -29.5 10.85 -28.55Q10 -27.6 8.8 -27.6Q6.2 -27.6 6.2 -29.9Q6.2 -31.55 7.1 -32.5Q7.9 -33.5 9.15 -33.5Q10.4 -33.5 11.05 -32.9Q11.7 -32.3 11.7 -30.95z" />
</g>
<g id="PathID_37" transform="matrix(0.735685, 0, 0, 0.735685, 67.25, 143)" opacity="1">
<path style="fill:#006C07;fill-opacity:1" d="M18.8 -23.25L20.15 -30.85Q20.15 -33 16.2 -33.4L16.45 -35.1L23.9 -35.65L25.05 -34.4L20.3 -4.9L20.15 -3.9Q20.15 -3.15 21.15 -3.15Q22.2 -3.15 23.85 -4.1L24.35 -2.5Q21 0.4 18.55 0.4Q16.75 0.4 16.2 -0.25Q15.65 -0.95 15.65 -1.9Q15.65 -2.85 16.05 -5Q12.4 0.4 8.65 0.4Q4.9 0.4 3.45 -2Q2 -4.4 2 -8.45Q2 -12.5 3.3 -16Q4.65 -19.55 7.3 -21.95Q9.95 -24.35 13.15 -24.35Q16.35 -24.35 18.8 -23.25M9.85 -2.3Q12 -2.3 14.3 -6Q16.6 -9.7 17.55 -15.4L18.4 -20.75Q16.45 -22.05 14.55 -22.05Q11.2 -22.05 8.9 -17.7Q6.6 -13.35 6.6 -8.75Q6.6 -2.3 9.85 -2.3" />
</g>
<g id="PathID_38" transform="matrix(0.735685, 0, 0, 0.735685, 67.25, 143)" opacity="1">
<path style="fill:none;stroke-width:1;stroke-linecap:round;stroke-linejoin:round;stroke-miterlimit:3;stroke:#004700;stroke-opacity:1" d="M18.75 -23.25L20.1 -30.8Q20.1 -33 16.15 -33.4L16.45 -35.1L23.85 -35.65L25 -34.4L20.25 -4.9L20.1 -3.9Q20.1 -3.15 21.1 -3.15Q22.15 -3.15 23.75 -4.1L24.3 -2.45Q20.9 0.35 18.45 0.35Q16.7 0.35 16.15 -0.2Q15.6 -0.9 15.6 -1.85Q15.6 -2.8 16.05 -5Q12.35 0.35 8.6 0.35Q4.9 0.35 3.4 -2Q1.95 -4.35 1.95 -8.45Q1.95 -12.45 3.25 -16Q4.6 -19.5 7.25 -21.9Q9.9 -24.35 13.1 -24.35Q16.3 -24.35 18.75 -23.25z" />
<path style="fill:none;stroke-width:1;stroke-linecap:round;stroke-linejoin:round;stroke-miterlimit:3;stroke:#004700;stroke-opacity:1" d="M9.75 -2.25Q11.95 -2.25 14.25 -6Q16.55 -9.65 17.5 -15.4L18.35 -20.75Q16.45 -22.05 14.55 -22.05Q11.15 -22.05 8.8 -17.7Q6.6 -13.35 6.6 -8.7Q6.6 -2.25 9.75 -2.25z" />
</g>
<g id="PathID_39" transform="matrix(0.735685, 0, 0, 0.735685, 87, 143)" opacity="1">
<path style="fill:#006C07;fill-opacity:1" d="M21.65 -18.9Q21.65 -15.15 17.4 -12.55Q13.15 -9.95 6.7 -9.95L6.7 -8.8Q6.7 -5.5 7.9 -3.9Q9.15 -2.3 11.25 -2.3Q14.1 -2.3 18.25 -5.4L19.75 -3.5Q18.15 -1.9 15.6 -0.75Q13.05 0.4 10.2 0.4Q5.95 0.4 3.95 -2.05Q2 -4.55 2 -8Q2 -15.4 5.5 -19.85Q9.05 -24.35 14.6 -24.35Q18.1 -24.35 19.85 -22.75Q21.65 -21.15 21.65 -18.9M14.25 -22Q11.45 -22 9.5 -19.3Q7.6 -16.65 6.95 -12.45Q11.5 -12.45 14.3 -14.3Q17.15 -16.15 17.15 -19Q17.15 -20.25 16.4 -21.1Q15.65 -22 14.25 -22" />
</g>
<g id="PathID_40" transform="matrix(0.735685, 0, 0, 0.735685, 87, 143)" opacity="1">
<path style="fill:none;stroke-width:1;stroke-linecap:round;stroke-linejoin:round;stroke-miterlimit:3;stroke:#004700;stroke-opacity:1" d="M21.6 -18.9Q21.6 -15.1 17.4 -12.5Q13.1 -9.95 6.65 -9.95L6.65 -8.8Q6.65 -5.45 7.85 -3.9Q9.1 -2.25 11.2 -2.25Q14.05 -2.25 18.2 -5.4L19.7 -3.5Q18.15 -1.85 15.55 -0.75Q13.05 0.35 10.2 0.35Q5.9 0.35 3.9 -2.05Q1.95 -4.5 1.95 -7.95Q1.95 -15.4 5.4 -19.85Q9 -24.35 14.55 -24.35Q18.05 -24.35 19.85 -22.7Q21.6 -21.15 21.6 -18.9z" />
<path style="fill:none;stroke-width:1;stroke-linecap:round;stroke-linejoin:round;stroke-miterlimit:3;stroke:#004700;stroke-opacity:1" d="M14.2 -21.95Q11.4 -21.95 9.45 -19.25Q7.55 -16.6 6.9 -12.45Q11.45 -12.45 14.25 -14.3Q17.1 -16.1 17.1 -19Q17.1 -20.2 16.35 -21.1Q15.6 -21.95 14.2 -21.95z" />
</g>
<g id="PathID_41" transform="matrix(0.735685, 0, 0, 0.735685, 104.2, 143)" opacity="1">
<path style="fill:#006C07;fill-opacity:1" d="M10.05 -25.9L7.75 -11.45Q6.7 -4.75 6.7 -4.2Q6.7 -3.65 6.9 -3.4Q7.1 -3.15 7.9 -3.15Q8.7 -3.15 10.3 -4.1L10.85 -2.5Q7.5 0.4 4.95 0.4Q3.2 0.4 2.6 -0.25Q2.05 -0.95 2.05 -2Q2.05 -3.95 4.6 -19.45L5.45 -24.55Q6.5 -30.8 6.5 -31.35Q6.5 -33.5 2.55 -33.9L2.8 -35.6L10.2 -36.15L11.5 -34.9L10.05 -25.9" />
</g>
<g id="PathID_42" transform="matrix(0.735685, 0, 0, 0.735685, 104.2, 143)" opacity="1">
<path style="fill:none;stroke-width:1;stroke-linecap:round;stroke-linejoin:round;stroke-miterlimit:3;stroke:#004700;stroke-opacity:1" d="M10 -25.9L7.75 -11.45Q6.65 -4.7 6.65 -4.15Q6.65 -3.6 6.9 -3.4Q7.1 -3.15 7.9 -3.15Q8.7 -3.15 10.25 -4.1L10.8 -2.45Q7.5 0.35 4.9 0.35Q3.2 0.35 2.6 -0.2Q2.05 -0.9 2.05 -2Q2.05 -3.95 4.55 -19.45L5.45 -24.55Q6.45 -30.8 6.45 -31.35Q6.45 -33.45 2.55 -33.85L2.8 -35.55L10.2 -36.1L11.5 -34.9L10 -25.9z" />
</g>
<g id="PathID_43" transform="matrix(0.735685, 0, 0, 0.735685, 114.2, 143)" opacity="1">
<path style="fill:#006C07;fill-opacity:1" d="M5.4 -19.4Q5.4 -20.45 4.65 -20.75Q3.9 -21.05 2.2 -21.05L1.9 -22.75L9.2 -24.35L10.45 -23.05Q7.5 -5.25 7.5 -4.4Q7.5 -3.6 7.65 -3.35Q7.85 -3.15 8.65 -3.15Q9.45 -3.15 11.1 -4.1L11.6 -2.5Q8.25 0.4 5.7 0.4Q3.95 0.4 3.4 -0.25Q2.85 -0.95 2.85 -2.05Q2.85 -3.15 4.1 -11.15L5.4 -19.4M11.7 -30.95Q11.7 -29.55 10.85 -28.55Q10 -27.6 8.8 -27.6Q6.25 -27.6 6.25 -29.95Q6.25 -31.6 7.1 -32.55Q7.95 -33.55 9.15 -33.55Q10.4 -33.55 11.05 -32.95Q11.7 -32.35 11.7 -30.95" />
</g>
<g id="PathID_44" transform="matrix(0.735685, 0, 0, 0.735685, 114.2, 143)" opacity="1">
<path style="fill:none;stroke-width:1;stroke-linecap:round;stroke-linejoin:round;stroke-miterlimit:3;stroke:#004700;stroke-opacity:1" d="M5.35 -19.4Q5.35 -20.4 4.65 -20.75Q3.9 -21 2.2 -21L1.85 -22.7L9.2 -24.35L10.4 -23.05Q7.5 -5.25 7.5 -4.35Q7.5 -3.55 7.6 -3.35Q7.8 -3.15 8.65 -3.15Q9.45 -3.15 11.1 -4.1L11.55 -2.45Q8.25 0.35 5.65 0.35Q3.95 0.35 3.4 -0.2Q2.8 -0.9 2.8 -2.05Q2.8 -3.15 4.1 -11.15L5.35 -19.4z" />
<path style="fill:none;stroke-width:1;stroke-linecap:round;stroke-linejoin:round;stroke-miterlimit:3;stroke:#004700;stroke-opacity:1" d="M11.7 -30.95Q11.7 -29.5 10.8 -28.55Q10 -27.6 8.75 -27.6Q6.2 -27.6 6.2 -29.9Q6.2 -31.55 7.05 -32.5Q7.9 -33.5 9.1 -33.5Q10.4 -33.5 11 -32.9Q11.7 -32.3 11.7 -30.95z" />
</g>
<g id="PathID_45" transform="matrix(0.735685, 0, 0, 0.735685, 124.45, 143)" opacity="1">
<path style="fill:#006C07;fill-opacity:1" d="M2.35 0Q5.35 -18.85 5.35 -19.65Q5.35 -20.45 4.55 -20.75Q3.8 -21.05 2.05 -21.05L1.8 -22.75L8.8 -24.35L10.05 -23.05L9.55 -18.35Q12.9 -24.35 17.65 -24.35Q20.4 -24.35 21.9 -22.9Q23.4 -21.5 23.4 -18.85Q23.4 -17.85 22.6 -13.25Q21.1 -4.9 21.1 -4.25Q21.1 -3.6 21.3 -3.35Q21.5 -3.15 22.25 -3.15Q23.05 -3.15 24.7 -4.1L25.2 -2.5Q21.9 0.4 19.35 0.4Q17.6 0.4 17 -0.3Q16.45 -1 16.45 -2Q16.45 -3.05 17.65 -10.1Q18.9 -17.2 18.9 -18.45Q18.9 -19.75 18.15 -20.65Q17.45 -21.55 16.2 -21.55Q13.25 -21.55 11.05 -17.55Q8.85 -13.55 8 -8.3L6.7 0L2.35 0" />
</g>
<g id="PathID_46" transform="matrix(0.735685, 0, 0, 0.735685, 124.45, 143)" opacity="1">
<path style="fill:none;stroke-width:1;stroke-linecap:round;stroke-linejoin:round;stroke-miterlimit:3;stroke:#004700;stroke-opacity:1" d="M2.3 0Q5.3 -18.85 5.3 -19.65Q5.3 -20.4 4.45 -20.75Q3.75 -21 2.05 -21L1.75 -22.7L8.75 -24.35L10 -23.05L9.5 -18.3Q12.85 -24.35 17.6 -24.35Q20.4 -24.35 21.85 -22.85Q23.35 -21.5 23.35 -18.85Q23.35 -17.8 22.55 -13.2Q21.05 -4.9 21.05 -4.25Q21.05 -3.55 21.25 -3.35Q21.45 -3.15 22.2 -3.15Q23.05 -3.15 24.65 -4.1L25.15 -2.45Q21.85 0.35 19.3 0.35Q17.5 0.35 17 -0.3Q16.45 -0.95 16.45 -2Q16.45 -3 17.6 -10.05Q18.9 -17.2 18.9 -18.45Q18.9 -19.75 18.15 -20.6Q17.4 -21.55 16.15 -21.55Q13.15 -21.55 11 -17.55Q8.8 -13.55 7.95 -8.3L6.65 0L2.3 0z" />
</g>
<g id="PathID_47" transform="matrix(0.735685, 0, 0, 0.735685, 144.6, 143)" opacity="1">
<path style="fill:#006C07;fill-opacity:1" d="M21.65 -18.9Q21.65 -15.15 17.4 -12.55Q13.15 -9.95 6.7 -9.95L6.7 -8.8Q6.7 -5.5 7.9 -3.9Q9.15 -2.3 11.25 -2.3Q14.1 -2.3 18.25 -5.4L19.75 -3.5Q18.15 -1.9 15.6 -0.75Q13.05 0.4 10.2 0.4Q5.95 0.4 3.95 -2.05Q2 -4.55 2 -8Q2 -15.4 5.5 -19.85Q9.05 -24.35 14.6 -24.35Q18.1 -24.35 19.85 -22.75Q21.65 -21.15 21.65 -18.9M14.25 -22Q11.45 -22 9.5 -19.3Q7.6 -16.65 6.95 -12.45Q11.5 -12.45 14.3 -14.3Q17.15 -16.15 17.15 -19Q17.15 -20.25 16.4 -21.1Q15.65 -22 14.25 -22" />
</g>
<g id="PathID_48" transform="matrix(0.735685, 0, 0, 0.735685, 144.6, 143)" opacity="1">
<path style="fill:none;stroke-width:1;stroke-linecap:round;stroke-linejoin:round;stroke-miterlimit:3;stroke:#004700;stroke-opacity:1" d="M21.6 -18.9Q21.6 -15.1 17.4 -12.5Q13.1 -9.95 6.65 -9.95L6.65 -8.8Q6.65 -5.45 7.85 -3.9Q9.1 -2.25 11.2 -2.25Q14.05 -2.25 18.2 -5.4L19.7 -3.5Q18.1 -1.85 15.55 -0.75Q13.05 0.35 10.15 0.35Q5.9 0.35 3.9 -2.05Q1.95 -4.5 1.95 -7.95Q1.95 -15.4 5.4 -19.85Q9 -24.35 14.5 -24.35Q18.05 -24.35 19.8 -22.7Q21.6 -21.15 21.6 -18.9z" />
<path style="fill:none;stroke-width:1;stroke-linecap:round;stroke-linejoin:round;stroke-miterlimit:3;stroke:#004700;stroke-opacity:1" d="M14.2 -21.95Q11.4 -21.95 9.4 -19.25Q7.5 -16.6 6.9 -12.45Q11.45 -12.45 14.25 -14.3Q17.1 -16.1 17.1 -19Q17.1 -20.2 16.35 -21.1Q15.6 -21.95 14.2 -21.95z" />
</g>
<g id="PathID_49" transform="matrix(0.735685, 0, 0, 0.735685, 161.75, 143)" opacity="1">
<path style="fill:#006C07;fill-opacity:1" d="M11.55 -22.05Q10.3 -22.05 9.2 -21.2Q8.15 -20.4 8.15 -18.9Q8.15 -17.45 9.05 -16.35Q10 -15.3 11.9 -13.7Q13.85 -12.15 15 -10.7Q16.15 -9.3 16.15 -7.55Q16.15 -3.75 13.55 -1.65Q10.95 0.4 7.35 0.4Q3.8 0.4 0.6 -1.75L2.15 -7.95L4.2 -7.6Q4.1 -6.6 4.1 -5.3Q4.1 -4 5.05 -3Q6 -2.05 8.45 -2.05Q9.6 -2.05 10.7 -2.85Q11.85 -3.7 11.85 -5.5Q11.85 -6.4 11.5 -6.85L11 -7.55Q10.85 -7.8 10.35 -8.25L9.7 -8.9Q8.8 -9.8 7.85 -10.55Q6.9 -11.35 6.15 -12.15Q5.4 -12.95 4.7 -14.3Q4.05 -15.65 4.05 -17.1Q4.05 -20.6 6.45 -22.45Q8.9 -24.35 12.25 -24.35Q15.65 -24.35 18.8 -22.6L17.15 -16.8L15.1 -16.8L15.15 -18.65Q15.15 -19.85 14.55 -20.95Q14 -22.05 11.55 -22.05" />
</g>
<g id="PathID_50" transform="matrix(0.735685, 0, 0, 0.735685, 161.75, 143)" opacity="1">
<path style="fill:none;stroke-width:1;stroke-linecap:round;stroke-linejoin:round;stroke-miterlimit:3;stroke:#004700;stroke-opacity:1" d="M11.45 -22.05Q10.25 -22.05 9.15 -21.15Q8.1 -20.4 8.1 -18.9Q8.1 -17.4 9.05 -16.35Q10 -15.3 11.9 -13.7Q13.8 -12.1 14.95 -10.7Q16.1 -9.25 16.1 -7.55Q16.1 -3.75 13.5 -1.65Q10.95 0.35 7.35 0.35Q3.75 0.35 0.55 -1.7L2.1 -7.9L4.15 -7.55Q4.05 -6.6 4.05 -5.25Q4.05 -3.95 5 -3Q5.95 -2.05 8.4 -2.05Q9.55 -2.05 10.65 -2.8Q11.8 -3.7 11.8 -5.45Q11.8 -6.4 11.45 -6.8L10.95 -7.55Q10.8 -7.75 10.3 -8.25L9.65 -8.85Q8.75 -9.8 7.8 -10.55Q6.85 -11.35 6.1 -12.1Q5.35 -12.95 4.7 -14.3Q4 -15.65 4 -17.1Q4 -20.6 6.4 -22.45Q8.8 -24.35 12.2 -24.35Q15.6 -24.35 18.75 -22.6L17.1 -16.8L15.1 -16.8L15.1 -18.65Q15.1 -19.85 14.55 -20.95Q13.9 -22.05 11.45 -22.05z" />
</g>
<g id="PathID_51" transform="matrix(0.6632, 0, 0, 0.6632, 81.65, 46.4)" opacity="1">
<path style="fill:#004700;fill-opacity:1" d="M88.15 21.8L67.8 6.35L51 7.55L36.4 8.55L36.4 8.75L45.3 18.75L52.75 26.95L88.05 21.8L88.15 21.8M81.9 21.95L83.7 19.5L86 21.25L81.9 21.95M107.25 58.75L107.15 58.95L112.95 57L121.85 56.65L107.25 58.75M107.15 58.95L106.8 58.95L124.8 58.65L106.5 61.95L128.1 60.95L106.5 64.45L131.5 63L109.45 66.4L134.9 64.9L111.65 68.5L138.6 67.1L114.25 70.05L142.45 69.4L116.25 72.25L145.3 71.35L115.8 74.4L149.7 73.45L110.2 77.4L150 76.2L104.3 79.8L146.7 79.55L98.6 82.2L133 83.2L92.65 84.7L120.4 86.25L86.1 87.25L109 88.9L77.85 90.85L100.25 91.95L70.2 94.5L90.25 94.8L64.15 97L77.2 97.65L54.75 100.5L115.8 74.4L115.8 71.25L111.65 68.5L106.5 65.45L106.5 64.45L106.5 61.95L106.5 59.2L107.15 58.95M106.8 58.95L107.25 58.75M106.5 65.55L114.25 71.7L53.5 99.75L2.2 53.7L1.2 51.75L0 46.45L0 43.2L0.45 40.55L2.1 35.5L5.05 32.65L17.1 29.4L53.5 76.05L53.5 76.2L52.3 78.9Q50.9 81.55 50.9 84.7L50.9 90.85L51.45 94.05L53.5 99.75L106.5 72L106.5 65.55M105.7 61.95L56.25 74.65L105.7 59.2L105.7 61.95M118.75 52.5L53.5 73.75L111 52.6L111 46.45L118.75 52.5M71.3 10.4L69.1 9.75L69.75 8.55L69.75 8.75L71.75 10L71.85 10.4L71.3 10.4M71.95 10.55L74.7 12.5L74.7 12.3L71.5 11.75L71.95 10.55M63.6 7.25L67.45 6.8L62.75 8.75L59.65 7.55L58.25 9.2L55.95 7.8L55.5 7.7L58.25 7.7L58.8 7.55L59.65 7.55L63.6 7.25M67.45 6.8L69.3 8.45L63.6 7.25M63.6 24.65L64.4 23.25L67.45 24L63.6 24.65M69.3 22.25L72.6 23.15L68.45 24L69.3 22.25M77.55 14.6L77 14.6L78.75 15.45L79.3 16.1L79.95 16.55L79.2 16.55L77.1 16.1L76.75 15.9L77.2 14.7L77.55 14.6M74.7 12.3L74.8 12.7L76.75 13.9L77.1 14.25L77.55 14.6M77 14.6L74.25 13.8L73.9 13.5L74.6 12.95L74.7 12.5M80.4 16.65L82.7 18.4L79.3 18.2L80.4 16.65M73.5 21.95L73.8 21.8L77.55 22.7L77.65 22.05L73.15 22.9L73.5 21.95M77.65 22.05L78 21.25L78 21.05L81.25 21.95L78.65 22.45L78 22.45L77.55 22.7M54.6 9L51.75 8.1L51.75 8L52.1 7.8L55.4 7.8L54.6 9M51 8.45L50.9 8.45L50.9 8.55L50.25 9.75L47.7 8.45L48.25 8.45L48.7 8.25L50.9 8L51 8L51 8.45M47.25 8.45L46.95 8.55L45.65 10.4L43.55 9L42.55 9L47.25 8.45M46.5 18.3L44.1 15.9L49.9 19.4L48.6 20.7L49.45 21.15L52.3 21.8L51 23.15L56.05 25.1L58 25.3L53.75 26.3L51 23.15L48.6 20.7L46.5 18.3M44.1 15.9L47.7 16.65L42.1 13.7L45.4 14.45L44.1 15.9M47.7 16.65L46.5 18.3M42.1 13.5L40.25 11.3L38.05 9.2L42.55 8.9L40.25 11.3L43.55 12.05L42.1 13.5M58.8 25.3L59.45 23.9L62.85 24.9L58.8 25.3M20.3 13.9L19.55 15L18.65 17L18.35 18.2L18.35 20.7L18.75 22.7L20.85 26.55L22.95 29.4L22.05 27.75L20.85 24.1L20.75 22.05L21.3 19.1L22.4 16.55L20.3 13.9M18.1 3.3L18 3.05L73.8 0L118.45 31.45L53.5 49.55L52.2 52.15L50.9 58.2L50.9 64.9L52.2 71.25L53.5 74.2L15.8 23.25L14.7 21.25L13.95 19.1L13.95 11.4L15.5 7.25L18.1 3.3M7.25 42.85L6.25 46.05L6.05 49.65L6.5 53.4L7.05 54.9L10.75 58.55Q9 56.55 9 54.5L8.55 50.75L9 46.8L9.65 45.25L10.55 43.95L8.15 41.55L7.25 42.85" />
</g>
<g id="PathID_52" transform="matrix(0.6632, 0, 0, 0.6632, 81.65, 46.4)" opacity="1">
</g>
<filter id="filter12" x="-0.521857" y="-0.521857" width="2.2411" height="2.24373" >
<feComponentTransfer in="SourceGraphic">
	<feFuncR type="linear" slope="0"/>
	<feFuncG type="linear" slope="0"/>
	<feFuncB type="linear" slope="0"/>
</feComponentTransfer>
<feGaussianBlur stdDeviation="0.6 0.6" />
<feOffset dx="2.12135" dy="2.12129"/>
<feComponentTransfer result="10">
	<feFuncR type="linear" Ue="0" intercept="0.101961"/>
	<feFuncG type="linear" Ue="0" intercept="0.352941"/>
	<feFuncB type="linear" Ue="0" intercept="0.113725"/>
	<feFuncA type="linear" xh="0" slope="2"/>
</feComponentTransfer>
<feComposite result="11"  in="SourceGraphic" in2="10" operator="over"/>
</filter>
<g style="filter:url(#filter12);">
<g id="PathID_53" transform="matrix(0.819404, 0, 0, 0.819404, 332.65, 76.9)" opacity="1">
<path style="fill:#00A60B;fill-opacity:1" d="M127.45 16.95L101.3 20.8L104.55 42.5L130.4 38.95L127.45 16.95M133.35 4.45L150 123.05Q150.3 123.65 149.7 124.2L148.8 124.8L125.35 128.1L122.1 128.4L120 128.4L114.95 128.7Q110.5 129 109.3 129.55Q109 129.25 109 128.7L92.4 10.4Q92.1 9.8 92.4 9.25L93.55 8.65L131.6 3.3L132.75 3.6L133.35 4.45M90.9 0.6Q91.2 0.9 91.2 1.8L91.2 128.7L91.2 129.25Q86.15 129 80.5 129Q67.7 129 58.8 129.55L52.85 130.15L51.1 130.15L48.1 129.85L47.8 129.55Q47.25 129.25 47.25 128.7L47.25 1.8Q47.25 0.9 47.8 0.6Q48.1 0 49 0L89.7 0Q90.3 0 90.9 0.6M83.15 14L55.25 14L55.25 37.45L83.15 37.45L83.15 14M41.6 8.95L41.6 128.7L41.3 129.25Q34.45 129 25.25 129Q13.35 129 5.05 129.55L0.9 130.15L0.3 129.55Q0 129.25 0 128.7L0 8.95Q0 8.35 0.3 8.05Q0.9 7.45 1.5 7.45L39.8 7.45Q40.7 7.45 41 8.05Q41.6 8.35 41.6 8.95M33.85 20.5L7.4 20.5L7.4 42.5L33.85 42.5L33.85 20.5M79.3 108.2Q79.3 104 76.35 101.05Q73.35 98.05 69.2 98.05Q65.05 98.05 62.1 101.05Q59.1 104 59.1 108.2Q59.1 112.35 62.1 115.3Q65.05 118.3 69.2 118.3Q73.65 118.3 76.35 115.3Q79.3 112.35 79.3 108.2M27.9 115.3Q30.9 112.35 30.9 108.2Q30.9 104 27.9 101.05Q24.95 98.05 20.8 98.05Q16.65 98.05 13.65 101.05Q10.7 104 10.7 108.2Q10.7 112.35 13.65 115.3Q16.65 118.3 20.8 118.3Q24.95 118.3 27.9 115.3M134.85 101.05Q131.9 98.05 127.7 98.05Q123.55 98.05 120.6 101.05Q117.6 104 117.6 108.2Q117.6 112.35 120.6 115.3Q123.55 118.3 127.7 118.3Q131.9 118.3 134.85 115.3Q137.8 112.35 137.8 108.2Q137.8 104 134.85 101.05" />
</g>
<g id="PathID_54" transform="matrix(0.819404, 0, 0, 0.819404, 332.65, 76.9)" opacity="1">
</g>
</g>
<g id="PathID_55" transform="matrix(0.441411, 0, 0, 0.441411, 15.9, 112.25)" opacity="1">
<path style="fill:#006C07;fill-opacity:1" d="M14.05 0.45Q9.35 0.45 6.45 -2.45Q3.55 -5.4 3.55 -11.8Q3.55 -18.25 5.35 -23.3Q7.15 -28.4 10.95 -31.45Q14.75 -34.55 20.2 -34.55Q24.2 -34.55 26.4 -32.8Q28.6 -31.1 28.6 -28.6Q28.6 -26.9 27.7 -25.5Q26.85 -24.15 25.5 -24.15Q24.2 -24.15 23.45 -24.7Q22.7 -25.25 22.65 -26.15Q23.7 -27.25 23.7 -28.6Q23.7 -30 22.65 -30.95Q21.6 -31.9 19.7 -31.9Q16.05 -31.9 13.45 -28.85Q8.55 -23.05 8.55 -10.9Q8.55 -2.5 14.75 -2.5Q17.85 -2.5 19.95 -3.6Q21.25 -4.35 21.5 -5.45L22.55 -12.05Q20.45 -12.7 17.55 -13L17.85 -15.15L27.15 -15.15L25.05 -2.8Q20.2 0.45 14.05 0.45" />
</g>
<g id="PathID_56" transform="matrix(0.441411, 0, 0, 0.441411, 15.9, 112.25)" opacity="1">
<path style="fill:none;stroke-width:1;stroke-linecap:round;stroke-linejoin:round;stroke-miterlimit:3;stroke:#004700;stroke-opacity:1" d="M14.05 0.35Q9.3 0.35 6.35 -2.4Q3.5 -5.35 3.5 -11.8Q3.5 -18.3 5.3 -23.25Q7.15 -28.35 10.85 -31.4Q14.7 -34.6 20.15 -34.6Q24.1 -34.6 26.4 -32.8Q28.55 -31.1 28.55 -28.6Q28.55 -26.9 27.65 -25.55Q26.85 -24.15 25.5 -24.15Q24.1 -24.15 23.45 -24.75Q22.65 -25.2 22.55 -26.1Q23.65 -27.25 23.65 -28.6Q23.65 -29.95 22.55 -30.95Q21.5 -31.85 19.6 -31.85Q15.95 -31.85 13.35 -28.8Q8.5 -23.05 8.5 -10.9Q8.5 -2.55 14.7 -2.55Q17.8 -2.55 19.95 -3.55Q21.2 -4.35 21.4 -5.5L22.55 -12.05Q20.4 -12.75 17.45 -12.95L17.8 -15.1L27.05 -15.1L25.05 -2.75Q20.15 0.35 14.05 0.35z" />
</g>
<g id="PathID_57" transform="matrix(0.441411, 0, 0, 0.441411, 29.1, 112.25)" opacity="1">
<path style="fill:#006C07;fill-opacity:1" d="M5.4 -19.4Q5.4 -20.45 4.65 -20.75Q3.9 -21.05 2.2 -21.05L1.9 -22.75L9.2 -24.35L10.45 -23.05Q7.5 -5.25 7.5 -4.4Q7.5 -3.6 7.65 -3.35Q7.85 -3.15 8.65 -3.15Q9.45 -3.15 11.1 -4.1L11.6 -2.5Q8.25 0.4 5.7 0.4Q3.95 0.4 3.4 -0.25Q2.85 -0.95 2.85 -2.05Q2.85 -3.15 4.1 -11.15L5.4 -19.4M11.7 -30.95Q11.7 -29.55 10.85 -28.55Q10 -27.6 8.8 -27.6Q6.25 -27.6 6.25 -29.95Q6.25 -31.6 7.1 -32.55Q7.95 -33.55 9.15 -33.55Q10.4 -33.55 11.05 -32.95Q11.7 -32.35 11.7 -30.95" />
</g>
<g id="PathID_58" transform="matrix(0.441411, 0, 0, 0.441411, 29.1, 112.25)" opacity="1">
<path style="fill:none;stroke-width:1;stroke-linecap:round;stroke-linejoin:round;stroke-miterlimit:3;stroke:#004700;stroke-opacity:1" d="M5.3 -19.4Q5.3 -20.45 4.65 -20.75Q3.85 -21 2.15 -21L1.8 -22.7L9.2 -24.3L10.4 -23.05Q7.5 -5.25 7.5 -4.35Q7.5 -3.55 7.6 -3.3Q7.8 -3.1 8.6 -3.1Q9.4 -3.1 11 -4.1L11.55 -2.55Q8.15 0.35 5.65 0.35Q3.85 0.35 3.4 -0.25Q2.85 -0.95 2.85 -2.1Q2.85 -3.1 4.1 -11.15L5.3 -19.4z" />
<path style="fill:none;stroke-width:1;stroke-linecap:round;stroke-linejoin:round;stroke-miterlimit:3;stroke:#004700;stroke-opacity:1" d="M11.65 -30.95Q11.65 -29.5 10.75 -28.6Q9.95 -27.55 8.7 -27.55Q6.25 -27.55 6.25 -29.95Q6.25 -31.55 7 -32.55Q7.95 -33.55 9.05 -33.55Q10.3 -33.55 11 -32.9Q11.65 -32.3 11.65 -30.95z" />
</g>
<g id="PathID_59" transform="matrix(0.441411, 0, 0, 0.441411, 35.2, 112.25)" opacity="1">
<path style="fill:#006C07;fill-opacity:1" d="M7.3 -4.6Q7.3 -2.8 9.1 -2.8Q10.9 -2.8 14.7 -5.4L15.95 -3.65L13.4 -1.75Q12.5 -1.1 10.65 -0.35Q8.85 0.4 6.9 0.4Q4.95 0.4 3.9 -0.7Q2.85 -1.8 2.85 -3.35Q2.85 -4.9 5.4 -21.1L1.7 -21.1L2 -22.8Q5.05 -23.65 6.35 -24.95Q7.7 -26.25 9.05 -28.85L11.1 -28.85L10.25 -23.9L18.45 -23.9L17.9 -21.1L9.8 -21.1L9.2 -17.4Q7.3 -5.85 7.3 -4.6" />
</g>
<g id="PathID_60" transform="matrix(0.441411, 0, 0, 0.441411, 35.2, 112.25)" opacity="1">
<path style="fill:none;stroke-width:1;stroke-linecap:round;stroke-linejoin:round;stroke-miterlimit:3;stroke:#004700;stroke-opacity:1" d="M7.25 -4.55Q7.25 -2.75 9.1 -2.75Q10.9 -2.75 14.65 -5.35L15.9 -3.65L13.4 -1.75Q12.5 -1.05 10.65 -0.4Q8.85 0.35 6.8 0.35Q4.9 0.35 3.85 -0.7Q2.85 -1.75 2.85 -3.3Q2.85 -4.9 5.35 -21.1L1.7 -21.1L1.95 -22.8Q5 -23.6 6.35 -24.95Q7.6 -26.2 8.95 -28.8L11 -28.8L10.2 -23.85L18.35 -23.85L17.9 -21.1L9.75 -21.1L9.2 -17.35Q7.25 -5.8 7.25 -4.55z" />
</g>
<g id="PathID_61" transform="matrix(0.441411, 0, 0, 0.441411, 43, 112.25)" opacity="1">
<path style="fill:#006C07;fill-opacity:1" d="M0.3 0L0.55 -1.85Q3.25 -2.25 4.9 -3.2L9.3 -30.9Q7.6 -31.9 4.9 -32.25L5.15 -34.15L18.15 -34.15L17.9 -32.25Q15.6 -31.9 13.8 -30.9L11.85 -18.85L24.9 -18.85L26.85 -30.9Q25 -31.9 22.5 -32.25L22.7 -34.15L35.7 -34.15L35.4 -32.25Q33.1 -31.9 31.35 -30.9L26.95 -3.2Q28.65 -2.25 31.6 -1.85L31.35 0L18.1 0L18.35 -1.85Q20.75 -2.2 22.45 -3.2L24.5 -16.1L11.45 -16.1L9.4 -3.2Q11.1 -2.25 13.75 -1.85L13.55 0L0.3 0" />
</g>
<g id="PathID_62" transform="matrix(0.441411, 0, 0, 0.441411, 43, 112.25)" opacity="1">
<path style="fill:none;stroke-width:1;stroke-linecap:round;stroke-linejoin:round;stroke-miterlimit:3;stroke:#004700;stroke-opacity:1" d="M0.2 0L0.45 -1.85Q3.15 -2.2 4.85 -3.2L9.3 -30.85Q7.6 -31.85 4.85 -32.2L5.1 -34.15L18.1 -34.15L17.9 -32.2Q15.5 -31.85 13.7 -30.85L11.75 -18.85L24.8 -18.85L26.85 -30.85Q24.9 -31.85 22.4 -32.2L22.65 -34.15L35.65 -34.15L35.35 -32.2Q33.05 -31.85 31.25 -30.85L26.85 -3.2Q28.55 -2.2 31.5 -1.85L31.25 0L18 0L18.25 -1.85Q20.7 -2.2 22.4 -3.2L24.45 -16.1L11.45 -16.1L9.3 -3.2Q11 -2.2 13.7 -1.85L13.45 0L0.2 0z" />
</g>
<g id="PathID_63" transform="matrix(0.441411, 0, 0, 0.441411, 58.1, 112.25)" opacity="1">
<path style="fill:#006C07;fill-opacity:1" d="M5.7 -19.4Q5.7 -20.45 4.95 -20.75Q4.2 -21.05 2.5 -21.05L2.25 -22.75L9.5 -24.35L10.8 -23.05L9.1 -13.55Q7.9 -6.65 7.9 -5.4Q7.9 -4.2 8.65 -3.3Q9.4 -2.4 10.6 -2.4Q13.6 -2.4 15.8 -6.4Q18 -10.4 18.8 -15.65L20.2 -24.25L24.55 -24.25L21.4 -4.3L21.4 -4Q21.4 -3.15 22.4 -3.15Q23.4 -3.15 25.05 -4.1L25.6 -2.5Q22.25 0.4 19.75 0.4Q18 0.4 17.4 -0.25Q16.85 -0.95 16.85 -1.75Q16.85 -2.55 17.45 -5.9Q14 0.4 9.2 0.4Q6.45 0.4 4.9 -1.05Q3.4 -2.5 3.4 -5.1L3.5 -6.45Q5.7 -18.95 5.7 -19.4" />
</g>
<g id="PathID_64" transform="matrix(0.441411, 0, 0, 0.441411, 58.1, 112.25)" opacity="1">
<path style="fill:none;stroke-width:1;stroke-linecap:round;stroke-linejoin:round;stroke-miterlimit:3;stroke:#004700;stroke-opacity:1" d="M5.65 -19.4Q5.65 -20.45 4.85 -20.75Q4.2 -21 2.5 -21L2.15 -22.7L9.4 -24.3L10.75 -23.05L9.05 -13.5Q7.8 -6.6 7.8 -5.35Q7.8 -4.25 8.6 -3.3Q9.3 -2.4 10.55 -2.4Q13.6 -2.4 15.75 -6.4Q17.9 -10.35 18.7 -15.65L20.15 -24.3L24.45 -24.3L21.3 -4.25L21.3 -4Q21.3 -3.1 22.3 -3.1Q23.35 -3.1 25.05 -4.1L25.6 -2.55Q22.2 0.35 19.7 0.35Q17.9 0.35 17.35 -0.25Q16.75 -0.95 16.75 -1.75Q16.75 -2.55 17.45 -5.95Q13.95 0.35 9.15 0.35Q6.35 0.35 4.85 -1.05Q3.4 -2.55 3.4 -5.15L3.4 -6.4Q5.65 -18.95 5.65 -19.4z" />
</g>
<g id="PathID_65" transform="matrix(0.441411, 0, 0, 0.441411, 70.15, 112.25)" opacity="1">
<path style="fill:#006C07;fill-opacity:1" d="M5.4 -0.65Q4.85 -0.85 4.35 -1.4Q3.85 -2 3.85 -2.7Q3.85 -3.45 4.1 -5.25L7 -23.3Q8.15 -30.4 8.15 -30.85Q8.15 -33 4.2 -33.4L4.5 -35.1L11.9 -35.65L13.2 -34.4L10.75 -19.35Q14.2 -24.35 17.9 -24.35Q21.65 -24.35 23.05 -21.95Q24.5 -19.55 24.5 -15.5Q24.5 -11.5 23 -7.95Q21.55 -4.4 18.65 -2Q15.8 0.4 12.6 0.4Q9.45 0.4 7.65 -0.05L5.4 -0.65M11.95 -1.9Q15.3 -1.9 17.6 -6.2Q19.95 -10.55 19.95 -15.2Q19.95 -21.7 16.65 -21.7Q14.25 -21.7 11.7 -16.85Q9.15 -12 8.25 -3.8Q8.25 -2.95 9.3 -2.4Q10.35 -1.9 11.95 -1.9" />
</g>
<g id="PathID_66" transform="matrix(0.441411, 0, 0, 0.441411, 70.15, 112.25)" opacity="1">
<path style="fill:none;stroke-width:1;stroke-linecap:round;stroke-linejoin:round;stroke-miterlimit:3;stroke:#004700;stroke-opacity:1" d="M5.3 -0.6Q4.75 -0.85 4.3 -1.4Q3.75 -1.95 3.75 -2.65Q3.75 -3.45 4.1 -5.25L6.9 -23.25Q8.05 -30.4 8.05 -30.85Q8.05 -33 4.2 -33.35L4.4 -35.05L11.9 -35.6L13.15 -34.35L10.65 -19.3Q14.15 -24.3 17.9 -24.3Q21.65 -24.3 23 -21.9Q24.45 -19.5 24.45 -15.45Q24.45 -11.5 23 -7.95Q21.5 -4.35 18.55 -1.95Q15.75 0.35 12.55 0.35Q9.4 0.35 7.6 -0.05L5.3 -0.6z" />
<path style="fill:none;stroke-width:1;stroke-linecap:round;stroke-linejoin:round;stroke-miterlimit:3;stroke:#004700;stroke-opacity:1" d="M11.9 -1.85Q15.3 -1.85 17.55 -6.15Q19.95 -10.55 19.95 -15.2Q19.95 -21.7 16.55 -21.7Q14.15 -21.7 11.65 -16.8Q9.05 -11.95 8.15 -3.8Q8.15 -3 9.3 -2.4Q10.3 -1.85 11.9 -1.85z" />
</g>
</svg>
