<?xml version="1.0" encoding="utf-8"?>
<svg version="1.1" id="Layer_1"
xmlns="http://www.w3.org/2000/svg"
xmlns:xlink="http://www.w3.org/1999/xlink"
width="32px" height="32px"
xml:space="preserve">
<g id="PathID_85" transform="matrix(0.173362, 0, 0, 0.223722, -38.5, 10.95)" opacity="1">
<path style="fill:#4A7DBC;fill-opacity:1" d="M111.35 8.4L111.35 26.45L150 54.4L122.05 54.4L122.05 117.2L27.95 117.2L27.95 54.4L0 54.4L74.6 0L102.3 19.75L102.3 8.4L111.35 8.4" />
</g>
<g id="PathID_86" transform="matrix(0.173362, 0, 0, 0.223722, -38.5, 10.95)" opacity="1">
</g>
<g id="PathID_87" transform="matrix(0.890661, 0, 0, 0.79958, 86.3, -7.2)" opacity="1">
<path style="fill:#FFFFFF;fill-opacity:1" d="M-15.65 -15.6L15.65 -15.6L15.65 15.6L-15.65 15.6L-15.65 -15.6" />
</g>
<g id="PathID_88" transform="matrix(0.890661, 0, 0, 0.79958, 86.3, -7.2)" opacity="1">
<path style="fill:none;stroke-width:1;stroke-linecap:round;stroke-linejoin:round;stroke-miterlimit:3;stroke:#31A24A;stroke-opacity:1" d="M-15.6 -15.55L15.65 -15.55L15.65 15.55L-15.6 15.55L-15.6 -15.55z" />
</g>
<g id="PathID_89" transform="matrix(0.433846, 0, 0, 0.433846, 20.2, 23.25)" opacity="1">
<path style="fill:#FFFFFF;fill-opacity:1" d="M-16.45 -4.6L16.45 -4.6L16.45 4.6L-16.45 4.6L-16.45 -4.6" />
</g>
<g id="PathID_90" transform="matrix(0.433846, 0, 0, 0.433846, 20.2, 23.25)" opacity="1">
</g>
<g id="PathID_91" transform="matrix(0.115913, 0, 0, 0.130766, 9.25, 16.5)" opacity="1">
<path style="fill:#31A24A;fill-opacity:1" d="M-29.85 -35.45L29.85 -35.45L29.85 35.45L-29.85 35.45L-29.85 -35.45" />
</g>
<g id="PathID_92" transform="matrix(0.115913, 0, 0, 0.130766, 9.25, 16.5)" opacity="1">
</g>
<g id="PathID_93" transform="matrix(0.190786, 0, 0, 0.215233, 1.6, 3.95)" opacity="1">
<path style="fill:#31A24A;fill-opacity:1" d="M96.15 0L120.45 1.8L120.65 19.05L150 78.3L140.55 78.4L139.75 116.8L12.75 116.8L13.65 70.65L0 71.1L36.7 5.85L95.5 13.1L96.15 0M99.8 93.3L99.8 83.15L91 83.15L91 93.3L99.8 93.3M85.1 83.15L76.3 83.15L76.3 93.3L85.1 93.3L85.1 83.15M120.8 93.3L129.45 93.3L129.45 83.15L120.8 83.15L120.8 93.3M114.7 93.3L114.7 83.15L105.9 83.15L105.9 93.3L114.7 93.3M44.05 48.05L34.45 48.05L34.45 63.2L44.05 63.2L44.05 48.05" />
</g>
<g id="PathID_94" transform="matrix(0.190786, 0, 0, 0.215233, 1.6, 3.95)" opacity="1">
</g>
<g id="PathID_95" transform="matrix(0.250632, -0.0454437, 0.0454437, 0.250632, 11.2, 18.65)" opacity="1">
<path style="fill:#FFFFFF;fill-opacity:1" d="M7.8 -22L14 -18.7L12.1 -13.1L15.25 -9.2L21.1 -10.05L23.1 -3.35L17.75 -0.8Q17.9 1.8 17.35 4.25L22 7.8L18.7 14L13.1 12.1Q11.4 13.9 9.2 15.25L10.05 21.1L3.35 23.1L0.8 17.75L-4.25 17.35L-7.8 22L-14 18.7L-12.1 13.1L-15.25 9.2L-21.1 10.05L-23.1 3.35L-17.75 0.8L-17.3 -4.2L-22 -7.8L-18.7 -14L-13.15 -12.05Q-11.4 -13.9 -9.2 -15.25L-10.05 -21.1L-3.35 -23.1L-0.8 -17.75L4.2 -17.3L7.8 -22M3.8 -7.1Q0.85 -8.65 -2.35 -7.7Q-5.55 -6.75 -7.1 -3.8Q-8.65 -0.85 -7.7 2.35Q-6.75 5.55 -3.8 7.1Q-0.85 8.65 2.35 7.7Q5.55 6.75 7.1 3.8Q8.65 0.85 7.7 -2.35Q6.75 -5.55 3.8 -7.1" />
</g>
<g id="PathID_96" transform="matrix(0.250632, -0.0454437, 0.0454437, 0.250632, 11.2, 18.65)" opacity="1">
</g>
<g id="PathID_97" transform="matrix(0.133178, 0.0395969, -0.0395969, 0.133178, 16.8, 12.5)" opacity="1">
<path style="fill:#FFFFFF;fill-opacity:1" d="M7.8 -22L14 -18.7L12.1 -13.1L15.25 -9.2L21.1 -10.05L23.1 -3.35L17.75 -0.8Q17.9 1.8 17.35 4.25L22 7.8L18.7 14L13.1 12.1Q11.4 13.9 9.2 15.25L10.05 21.1L3.35 23.1L0.8 17.75L-4.25 17.35L-7.8 22L-14 18.7L-12.1 13.1L-15.25 9.2L-21.1 10.05L-23.1 3.35L-17.75 0.8L-17.3 -4.2L-22 -7.8L-18.7 -14L-13.15 -12.05Q-11.4 -13.9 -9.2 -15.25L-10.05 -21.1L-3.35 -23.1L-0.8 -17.75L4.2 -17.3L7.8 -22M3.8 -7.1Q0.85 -8.65 -2.35 -7.7Q-5.55 -6.75 -7.1 -3.8Q-8.65 -0.85 -7.7 2.35Q-6.75 5.55 -3.8 7.1Q-0.85 8.65 2.35 7.7Q5.55 6.75 7.1 3.8Q8.65 0.85 7.7 -2.35Q6.75 -5.55 3.8 -7.1" />
</g>
<g id="PathID_98" transform="matrix(0.133178, 0.0395969, -0.0395969, 0.133178, 16.8, 12.5)" opacity="1">
</g>
<g id="PathID_99" transform="matrix(0.109285, -0.0123569, 0.0123569, 0.109285, 21.7, 14.45)" opacity="1">
<path style="fill:#FFFFFF;fill-opacity:1" d="M7.8 -22L14 -18.7L12.1 -13.1L15.25 -9.2L21.1 -10.05L23.1 -3.35L17.75 -0.8Q17.9 1.8 17.35 4.25L22 7.8L18.7 14L13.1 12.1Q11.4 13.9 9.2 15.25L10.05 21.1L3.35 23.1L0.8 17.75L-4.25 17.35L-7.8 22L-14 18.7L-12.1 13.1L-15.25 9.2L-21.1 10.05L-23.1 3.35L-17.75 0.8L-17.3 -4.2L-22 -7.8L-18.7 -14L-13.15 -12.05Q-11.4 -13.9 -9.2 -15.25L-10.05 -21.1L-3.35 -23.1L-0.8 -17.75L4.2 -17.3L7.8 -22M3.8 -7.1Q0.85 -8.65 -2.35 -7.7Q-5.55 -6.75 -7.1 -3.8Q-8.65 -0.85 -7.7 2.35Q-6.75 5.55 -3.8 7.1Q-0.85 8.65 2.35 7.7Q5.55 6.75 7.1 3.8Q8.65 0.85 7.7 -2.35Q6.75 -5.55 3.8 -7.1" />
</g>
<g id="PathID_100" transform="matrix(0.109285, -0.0123569, 0.0123569, 0.109285, 21.7, 14.45)" opacity="1">
</g>
<g id="PathID_101" transform="matrix(1, 0, 0, 0.835821, 45.45, 6.6)" opacity="1">
<path style="fill:#FFFFFF;fill-opacity:1" d="M-1.85 -6.55L1.85 -6.55L1.85 6.6L-1.85 6.6L-1.85 -6.55" />
</g>
<g id="PathID_102" transform="matrix(1, 0, 0, 0.835821, 45.45, 6.6)" opacity="1">
</g>
</svg>
