<?xml version="1.0" encoding="utf-8"?>
<svg version="1.1" id="Layer_1"
xmlns="http://www.w3.org/2000/svg"
xmlns:xlink="http://www.w3.org/1999/xlink"
width="200px" height="200px"
xml:space="preserve">
<filter id="filter15" x="-0.521857" y="-0.521857" width="2.26366" height="2.26113" >
<feComponentTransfer in="SourceGraphic">
	<feFuncR type="linear" slope="0"/>
	<feFuncG type="linear" slope="0"/>
	<feFuncB type="linear" slope="0"/>
</feComponentTransfer>
<feGaussianBlur stdDeviation="0.6 0.6" />
<feOffset dx="7.07116" dy="7.07098"/>
<feComponentTransfer result="13">
	<feFuncR type="linear" Ue="0" intercept="0"/>
	<feFuncG type="linear" Ue="0" intercept="0"/>
	<feFuncB type="linear" Ue="0" intercept="0"/>
	<feFuncA type="linear" xh="0" slope="0.300781"/>
</feComponentTransfer>
<feComposite result="14"  in="SourceGraphic" in2="13" operator="over"/>
</filter>
<g style="filter:url(#filter15);">
<g id="PathID_67" transform="matrix(1.97465, 0, 0, 1.83413, 98.05, 94.5)" opacity="1">
<path style="fill:#FFFFFF;fill-opacity:1" d="M44.1 -25.9L44.4 25.9L0 51.1L-44.1 25.9L-44.4 -25.9L0 -51.1L44.1 -25.9" />
</g>
<g id="PathID_68" transform="matrix(1.97465, 0, 0, 1.83413, 98.05, 94.5)" opacity="1">
<path style="fill:none;stroke-width:1;stroke-linecap:round;stroke-linejoin:round;stroke-miterlimit:3;stroke:#004700;stroke-opacity:1" d="M0 -51.05L-44.4 -25.9L-44.1 25.9L0 51.1L44.35 25.9L44.05 -25.9L0 -51.05z" />
</g>
</g>
<filter id="filter18" x="-0.529762" y="-0.529762" width="2.27119" height="2.27118" >
<feComponentTransfer in="SourceGraphic">
	<feFuncR type="linear" slope="0"/>
	<feFuncG type="linear" slope="0"/>
	<feFuncB type="linear" slope="0"/>
</feComponentTransfer>
<feGaussianBlur stdDeviation="1 1" />
<feOffset dx="2.12135" dy="2.12129"/>
<feComponentTransfer result="16">
	<feFuncR type="linear" Ue="0" intercept="0"/>
	<feFuncG type="linear" Ue="0" intercept="0"/>
	<feFuncB type="linear" Ue="0" intercept="0"/>
	<feFuncA type="linear" xh="0" slope="0.5"/>
</feComponentTransfer>
<feComposite result="17"  in="SourceGraphic" in2="16" operator="over"/>
</filter>
<g style="filter:url(#filter18);">
<g id="PathID_69" transform="matrix(1.4752, -0.142989, 0.142989, 1.4752, 35.2, 55.75)" opacity="1">
<path style="fill:#004700;fill-opacity:0.898039" d="M7.8 -22L14 -18.7L12.1 -13.1L15.25 -9.2L21.1 -10.05L23.1 -3.35L17.75 -0.8Q17.9 1.8 17.35 4.25L22 7.8L18.7 14L13.1 12.1Q11.4 13.9 9.2 15.25L10.05 21.1L3.35 23.1L0.8 17.75L-4.25 17.35L-7.8 22L-14 18.7L-12.1 13.1L-15.25 9.2L-21.1 10.05L-23.1 3.35L-17.75 0.8L-17.3 -4.2L-22 -7.8L-18.7 -14L-13.15 -12.05Q-11.4 -13.9 -9.2 -15.25L-10.05 -21.1L-3.35 -23.1L-0.8 -17.75L4.2 -17.3L7.8 -22M3.8 -7.1Q0.85 -8.65 -2.35 -7.7Q-5.55 -6.75 -7.1 -3.8Q-8.65 -0.85 -7.7 2.35Q-6.75 5.55 -3.8 7.1Q-0.85 8.65 2.35 7.7Q5.55 6.75 7.1 3.8Q8.65 0.85 7.7 -2.35Q6.75 -5.55 3.8 -7.1" />
</g>
<g id="PathID_70" transform="matrix(1.4752, -0.142989, 0.142989, 1.4752, 35.2, 55.75)" opacity="1">
</g>
</g>
<g id="PathID_71" transform="matrix(0.34945, 0, 0, 0.34945, -24.3, 306.8)" opacity="1">
<path style="fill:#868485;fill-opacity:1" d="M29.85 -37.25L17.25 -16.45L17.25 0L12.3 0L12.3 -15.95L-0.3 -37.25L5.2 -37.25L14.8 -20.85L24.55 -37.25L29.85 -37.25" />
</g>
<g id="PathID_72" transform="matrix(0.34945, 0, 0, 0.34945, -24.3, 306.8)" opacity="1">
</g>
<g id="PathID_73" transform="matrix(0.34945, 0, 0, 0.34945, -14.15, 306.8)" opacity="1">
<path style="fill:#868485;fill-opacity:1" d="M26.35 -13.95Q26.35 -6.85 22.95 -3Q19.55 0.8 13.9 0.8Q8.1 0.8 4.75 -3.15Q1.45 -7.1 1.45 -13.95Q1.45 -20.95 4.85 -24.85Q8.3 -28.75 13.9 -28.75Q19.55 -28.75 22.95 -24.85Q26.35 -21 26.35 -13.95M21.5 -13.95Q21.5 -19.35 19.5 -22Q17.55 -24.65 13.9 -24.65Q10.25 -24.65 8.25 -22Q6.3 -19.35 6.3 -13.95Q6.3 -8.7 8.25 -6Q10.25 -3.3 13.9 -3.3Q17.5 -3.3 19.5 -5.95Q21.5 -8.6 21.5 -13.95" />
</g>
<g id="PathID_74" transform="matrix(0.34945, 0, 0, 0.34945, -14.15, 306.8)" opacity="1">
</g>
<g id="PathID_75" transform="matrix(0.34945, 0, 0, 0.34945, -3.5, 306.8)" opacity="1">
<path style="fill:#868485;fill-opacity:1" d="M25.15 0L20.45 0L20.45 -3.05Q18.25 -1.15 16.3 -0.15Q14.35 0.8 11.95 0.8Q10.15 0.8 8.5 0.2Q6.9 -0.4 5.7 -1.7Q4.5 -3 3.85 -4.95Q3.2 -6.95 3.2 -9.75L3.2 -27.95L7.9 -27.95L7.9 -12Q7.9 -9.8 8.05 -8.3Q8.2 -6.85 8.8 -5.75Q9.35 -4.7 10.35 -4.2Q11.35 -3.7 13.2 -3.7Q14.9 -3.7 16.85 -4.65Q18.8 -5.6 20.45 -7.05L20.45 -27.95L25.15 -27.95L25.15 0" />
</g>
<g id="PathID_76" transform="matrix(0.34945, 0, 0, 0.34945, -3.5, 306.8)" opacity="1">
</g>
<g id="PathID_77" transform="matrix(0.34945, 0, 0, 0.34945, 7.3, 306.8)" opacity="1">
<path style="fill:#868485;fill-opacity:1" d="M18.2 -22.85L17.95 -22.85L16.8 -23L15.4 -23.05Q13.5 -23.05 11.6 -22.2Q9.75 -21.4 8.1 -19.75L8.1 0L3.4 0L3.4 -27.95L8.1 -27.95L8.1 -23.75Q10.65 -26.05 12.55 -27Q14.5 -27.95 16.3 -27.95L17.35 -27.9L18.2 -27.75L18.2 -22.85" />
</g>
<g id="PathID_78" transform="matrix(0.34945, 0, 0, 0.34945, 7.3, 306.8)" opacity="1">
</g>
<g id="PathID_79" transform="matrix(0.34945, 0, 0, 0.34945, 14.65, 306.8)" opacity="1">
<path style="fill:#868485;fill-opacity:1" d="M12.5 0L12.5 -32.85L0 -32.85L0 -37.25L29.95 -37.25L29.95 -32.85L17.45 -32.85L17.45 0L12.5 0" />
</g>
<g id="PathID_80" transform="matrix(0.34945, 0, 0, 0.34945, 14.65, 306.8)" opacity="1">
</g>
<g id="PathID_81" transform="matrix(0.34945, 0, 0, 0.34945, 24.15, 306.8)" opacity="1">
<path style="fill:#868485;fill-opacity:1" d="M15.5 0.65Q8.8 0.65 5.1 -3.1Q1.45 -6.85 1.45 -13.8Q1.45 -20.65 5 -24.7Q8.6 -28.75 14.35 -28.75Q16.95 -28.75 18.95 -27.95Q20.95 -27.2 22.45 -25.6Q23.95 -24 24.75 -21.7Q25.6 -19.4 25.6 -16.05L25.6 -13.5L6.25 -13.5Q6.25 -8.6 8.7 -6Q11.15 -3.45 15.45 -3.45Q17 -3.45 18.5 -3.8Q20 -4.15 21.2 -4.7Q22.45 -5.25 23.3 -5.8Q24.2 -6.35 24.8 -6.85L25.1 -6.85L25.1 -1.7L23 -0.85L20.8 -0.1Q19.45 0.25 18.3 0.45Q17.2 0.65 15.5 0.65M21 -17.1Q20.95 -19 20.55 -20.35Q20.15 -21.75 19.4 -22.7Q18.55 -23.75 17.25 -24.3Q16 -24.85 14.1 -24.85Q12.2 -24.85 10.9 -24.25Q9.6 -23.7 8.5 -22.65Q7.45 -21.55 6.9 -20.2Q6.4 -18.85 6.25 -17.1L21 -17.1" />
</g>
<g id="PathID_82" transform="matrix(0.34945, 0, 0, 0.34945, 24.15, 306.8)" opacity="1">
</g>
<g id="PathID_83" transform="matrix(0.34945, 0, 0, 0.34945, 34.5, 306.8)" opacity="1">
<path style="fill:#868485;fill-opacity:1" d="M25.1 0L19.3 0L12.55 -10.5L5.55 0L0.25 0L9.9 -13.85L0.35 -27.95L6.1 -27.95L12.8 -17.5L19.75 -27.95L25.1 -27.95L15.45 -14.15L25.1 0" />
</g>
<g id="PathID_84" transform="matrix(0.34945, 0, 0, 0.34945, 34.5, 306.8)" opacity="1">
</g>
<g id="PathID_85" transform="matrix(0.34945, 0, 0, 0.34945, 44.3, 306.8)" opacity="1">
<path style="fill:#868485;fill-opacity:1" d="M11.85 0.55Q8 0.55 5.85 -1.6Q3.7 -3.8 3.7 -8.5L3.7 -24L0.55 -24L0.55 -27.95L3.7 -27.95L3.7 -36L8.4 -36L8.4 -27.95L17.1 -27.95L17.1 -24L8.4 -24L8.4 -10.7L8.45 -7.45Q8.55 -6.3 9.05 -5.3Q9.45 -4.4 10.4 -3.95Q11.35 -3.55 13 -3.55Q14.15 -3.55 15.2 -3.85Q16.3 -4.2 16.8 -4.45L17.1 -4.45L17.1 -0.2Q15.75 0.15 14.35 0.35Q13 0.55 11.85 0.55" />
</g>
<g id="PathID_86" transform="matrix(0.34945, 0, 0, 0.34945, 44.3, 306.8)" opacity="1">
</g>
<g id="PathID_87" transform="matrix(0.34945, 0, 0, 0.34945, 51.25, 306.8)" opacity="1">
<path style="fill:#868485;fill-opacity:1" d="M30.8 0L25.85 0L25.85 -18.25L8.75 -18.25L8.75 0L3.8 0L3.8 -37.25L8.75 -37.25L8.75 -22.65L25.85 -22.65L25.85 -37.25L30.8 -37.25L30.8 0" />
</g>
<g id="PathID_88" transform="matrix(0.34945, 0, 0, 0.34945, 51.25, 306.8)" opacity="1">
</g>
<g id="PathID_89" transform="matrix(0.34945, 0, 0, 0.34945, 64.25, 306.8)" opacity="1">
<path style="fill:#868485;fill-opacity:1" d="M15.5 0.65Q8.8 0.65 5.1 -3.1Q1.45 -6.85 1.45 -13.8Q1.45 -20.65 5 -24.7Q8.6 -28.75 14.35 -28.75Q16.95 -28.75 18.95 -27.95Q20.95 -27.2 22.45 -25.6Q23.95 -24 24.75 -21.7Q25.6 -19.4 25.6 -16.05L25.6 -13.5L6.25 -13.5Q6.25 -8.6 8.7 -6Q11.15 -3.45 15.45 -3.45Q17 -3.45 18.5 -3.8Q20 -4.15 21.2 -4.7Q22.45 -5.25 23.3 -5.8Q24.2 -6.35 24.8 -6.85L25.1 -6.85L25.1 -1.7L23 -0.85L20.8 -0.1Q19.45 0.25 18.3 0.45Q17.2 0.65 15.5 0.65M21 -17.1Q20.95 -19 20.55 -20.35Q20.15 -21.75 19.4 -22.7Q18.55 -23.75 17.25 -24.3Q16 -24.85 14.1 -24.85Q12.2 -24.85 10.9 -24.25Q9.6 -23.7 8.5 -22.65Q7.45 -21.55 6.9 -20.2Q6.4 -18.85 6.25 -17.1L21 -17.1" />
</g>
<g id="PathID_90" transform="matrix(0.34945, 0, 0, 0.34945, 64.25, 306.8)" opacity="1">
</g>
<g id="PathID_91" transform="matrix(0.34945, 0, 0, 0.34945, 74.6, 306.8)" opacity="1">
<path style="fill:#868485;fill-opacity:1" d="M18.2 -22.85L17.95 -22.85L16.8 -23L15.4 -23.05Q13.5 -23.05 11.6 -22.2Q9.75 -21.4 8.1 -19.75L8.1 0L3.4 0L3.4 -27.95L8.1 -27.95L8.1 -23.75Q10.65 -26.05 12.55 -27Q14.5 -27.95 16.3 -27.95L17.35 -27.9L18.2 -27.75L18.2 -22.85" />
</g>
<g id="PathID_92" transform="matrix(0.34945, 0, 0, 0.34945, 74.6, 306.8)" opacity="1">
</g>
<g id="PathID_93" transform="matrix(0.34945, 0, 0, 0.34945, 81.9, 306.8)" opacity="1">
<path style="fill:#868485;fill-opacity:1" d="M15.5 0.65Q8.8 0.65 5.1 -3.1Q1.45 -6.85 1.45 -13.8Q1.45 -20.65 5 -24.7Q8.6 -28.75 14.35 -28.75Q16.95 -28.75 18.95 -27.95Q20.95 -27.2 22.45 -25.6Q23.95 -24 24.75 -21.7Q25.6 -19.4 25.6 -16.05L25.6 -13.5L6.25 -13.5Q6.25 -8.6 8.7 -6Q11.15 -3.45 15.45 -3.45Q17 -3.45 18.5 -3.8Q20 -4.15 21.2 -4.7Q22.45 -5.25 23.3 -5.8Q24.2 -6.35 24.8 -6.85L25.1 -6.85L25.1 -1.7L23 -0.85L20.8 -0.1Q19.45 0.25 18.3 0.45Q17.2 0.65 15.5 0.65M21 -17.1Q20.95 -19 20.55 -20.35Q20.15 -21.75 19.4 -22.7Q18.55 -23.75 17.25 -24.3Q16 -24.85 14.1 -24.85Q12.2 -24.85 10.9 -24.25Q9.6 -23.7 8.5 -22.65Q7.45 -21.55 6.9 -20.2Q6.4 -18.85 6.25 -17.1L21 -17.1" />
</g>
<g id="PathID_94" transform="matrix(0.34945, 0, 0, 0.34945, 81.9, 306.8)" opacity="1">
</g>
<filter id="filter21" x="-0.529762" y="-0.529762" width="2.29686" height="2.29686" >
<feComponentTransfer in="SourceGraphic">
	<feFuncR type="linear" slope="0"/>
	<feFuncG type="linear" slope="0"/>
	<feFuncB type="linear" slope="0"/>
</feComponentTransfer>
<feGaussianBlur stdDeviation="1 1" />
<feOffset dx="2.12135" dy="2.12129"/>
<feComponentTransfer result="19">
	<feFuncR type="linear" Ue="0" intercept="0"/>
	<feFuncG type="linear" Ue="0" intercept="0"/>
	<feFuncB type="linear" Ue="0" intercept="0"/>
	<feFuncA type="linear" xh="0" slope="0.5"/>
</feComponentTransfer>
<feComposite result="20"  in="SourceGraphic" in2="19" operator="over"/>
</filter>
<g style="filter:url(#filter21);">
<g id="PathID_95" transform="matrix(0.757483, 0.282483, -0.282483, 0.757483, 71.5, 21.5)" opacity="1">
<path style="fill:#004700;fill-opacity:0.898039" d="M7.8 -22L14 -18.7L12.1 -13.1L15.25 -9.2L21.1 -10.05L23.1 -3.35L17.75 -0.8Q17.9 1.8 17.35 4.25L22 7.8L18.7 14L13.1 12.1Q11.4 13.9 9.2 15.25L10.05 21.1L3.35 23.1L0.8 17.75L-4.25 17.35L-7.8 22L-14 18.7L-12.1 13.1L-15.25 9.2L-21.1 10.05L-23.1 3.35L-17.75 0.8L-17.3 -4.2L-22 -7.8L-18.7 -14L-13.15 -12.05Q-11.4 -13.9 -9.2 -15.25L-10.05 -21.1L-3.35 -23.1L-0.8 -17.75L4.2 -17.3L7.8 -22M3.8 -7.1Q0.85 -8.65 -2.35 -7.7Q-5.55 -6.75 -7.1 -3.8Q-8.65 -0.85 -7.7 2.35Q-6.75 5.55 -3.8 7.1Q-0.85 8.65 2.35 7.7Q5.55 6.75 7.1 3.8Q8.65 0.85 7.7 -2.35Q6.75 -5.55 3.8 -7.1" />
</g>
<g id="PathID_96" transform="matrix(0.757483, 0.282483, -0.282483, 0.757483, 71.5, 21.5)" opacity="1">
</g>
</g>
<g id="PathID_97" transform="matrix(0.735685, 0, 0, 0.735685, 38.25, 143.6)" opacity="1">
<path style="fill:#006C07;fill-opacity:1" d="M18.15 -34.15Q23.55 -34.15 26.15 -32.35Q28.75 -30.55 28.75 -26.7Q28.75 -15 14.05 -15L12.25 -15L10.35 -3.2Q12 -2.25 15 -1.85L14.75 0L1.2 0L1.45 -1.85Q4.15 -2.2 5.8 -3.2L10.25 -30.9Q8.6 -31.9 5.85 -32.25L6.1 -34.15L18.15 -34.15M18.55 -32Q15.9 -32 15.35 -31.55Q14.8 -31.1 14.65 -30.15L12.6 -17.3L14.05 -17.3Q18.75 -17.3 21.45 -19.7Q24.15 -22.1 24.15 -26.6Q24.15 -32 18.55 -32" />
</g>
<g id="PathID_98" transform="matrix(0.735685, 0, 0, 0.735685, 38.25, 143.6)" opacity="1">
<path style="fill:none;stroke-width:1;stroke-linecap:round;stroke-linejoin:round;stroke-miterlimit:3;stroke:#004700;stroke-opacity:1" d="M18.15 -34.1Q23.55 -34.1 26.1 -32.3Q28.75 -30.5 28.75 -26.65Q28.75 -14.95 14 -14.95L12.25 -14.95L10.35 -3.2Q12 -2.25 14.95 -1.85L14.75 0L1.15 0L1.45 -1.85Q4.15 -2.2 5.8 -3.2L10.2 -30.85Q8.6 -31.9 5.85 -32.2L6.05 -34.1L18.15 -34.1z" />
<path style="fill:none;stroke-width:1;stroke-linecap:round;stroke-linejoin:round;stroke-miterlimit:3;stroke:#004700;stroke-opacity:1" d="M18.5 -31.95Q15.85 -31.95 15.3 -31.55Q14.75 -31.05 14.65 -30.1L12.6 -17.25L14 -17.25Q18.7 -17.25 21.45 -19.65Q24.15 -22.1 24.15 -26.55Q24.15 -31.95 18.5 -31.95z" />
</g>
<g id="PathID_99" transform="matrix(0.735685, 0, 0, 0.735685, 59.15, 143.6)" opacity="1">
<path style="fill:#006C07;fill-opacity:1" d="M11.15 -2.05Q14.05 -2.05 16.35 -6.15Q18.7 -10.25 18.7 -16.05Q18.7 -21.9 15.15 -21.9Q12.15 -21.9 9.85 -17.75Q7.55 -13.65 7.55 -7.85Q7.55 -2.05 11.15 -2.05M11.15 0.4Q7.05 0.4 4.9 -1.85Q2.8 -4.15 2.8 -8.35Q2.8 -14.85 6.05 -19.6Q9.35 -24.35 15.15 -24.35Q19.25 -24.35 21.35 -22.05Q23.5 -19.8 23.5 -15.6Q23.5 -9.05 20.2 -4.3Q16.9 0.4 11.15 0.4" />
</g>
<g id="PathID_100" transform="matrix(0.735685, 0, 0, 0.735685, 59.15, 143.6)" opacity="1">
<path style="fill:none;stroke-width:1;stroke-linecap:round;stroke-linejoin:round;stroke-miterlimit:3;stroke:#004700;stroke-opacity:1" d="M11.1 -2.05Q14 -2.05 16.3 -6.1Q18.65 -10.2 18.65 -16.05Q18.65 -21.9 15.05 -21.9Q12.05 -21.9 9.75 -17.75Q7.5 -13.6 7.5 -7.8Q7.5 -2.05 11.1 -2.05z" />
<path style="fill:none;stroke-width:1;stroke-linecap:round;stroke-linejoin:round;stroke-miterlimit:3;stroke:#004700;stroke-opacity:1" d="M11.1 0.35Q7 0.35 4.85 -1.85Q2.75 -4.15 2.75 -8.3Q2.75 -14.8 6.05 -19.55Q9.3 -24.35 15.05 -24.35Q19.2 -24.35 21.3 -22Q23.4 -19.8 23.4 -15.55Q23.4 -9.05 20.15 -4.3Q16.85 0.35 11.1 0.35z" />
</g>
<g id="PathID_101" transform="matrix(0.735685, 0, 0, 0.735685, 78.2, 143.6)" opacity="1">
<path style="fill:#006C07;fill-opacity:1" d="M10.05 -25.9L7.75 -11.45Q6.7 -4.75 6.7 -4.2Q6.7 -3.65 6.9 -3.4Q7.1 -3.15 7.9 -3.15Q8.7 -3.15 10.3 -4.1L10.85 -2.5Q7.5 0.4 4.95 0.4Q3.2 0.4 2.6 -0.25Q2.05 -0.95 2.05 -2Q2.05 -3.95 4.6 -19.45L5.45 -24.55Q6.5 -30.8 6.5 -31.35Q6.5 -33.5 2.55 -33.9L2.8 -35.6L10.2 -36.15L11.5 -34.9L10.05 -25.9" />
</g>
<g id="PathID_102" transform="matrix(0.735685, 0, 0, 0.735685, 78.2, 143.6)" opacity="1">
<path style="fill:none;stroke-width:1;stroke-linecap:round;stroke-linejoin:round;stroke-miterlimit:3;stroke:#004700;stroke-opacity:1" d="M10 -25.9L7.75 -11.4Q6.7 -4.7 6.7 -4.15Q6.7 -3.6 6.9 -3.4Q7.1 -3.15 7.9 -3.15Q8.7 -3.15 10.3 -4.1L10.85 -2.45Q7.5 0.35 4.9 0.35Q3.2 0.35 2.6 -0.2Q2.05 -0.9 2.05 -1.95Q2.05 -3.95 4.55 -19.45L5.45 -24.55Q6.5 -30.8 6.5 -31.35Q6.5 -33.45 2.55 -33.85L2.8 -35.55L10.2 -36.1L11.5 -34.85L10 -25.9z" />
</g>
<g id="PathID_103" transform="matrix(0.735685, 0, 0, 0.735685, 88.2, 143.6)" opacity="1">
<path style="fill:#006C07;fill-opacity:1" d="M5.4 -19.4Q5.4 -20.45 4.65 -20.75Q3.9 -21.05 2.2 -21.05L1.9 -22.75L9.2 -24.35L10.45 -23.05Q7.5 -5.25 7.5 -4.4Q7.5 -3.6 7.65 -3.35Q7.85 -3.15 8.65 -3.15Q9.45 -3.15 11.1 -4.1L11.6 -2.5Q8.25 0.4 5.7 0.4Q3.95 0.4 3.4 -0.25Q2.85 -0.95 2.85 -2.05Q2.85 -3.15 4.1 -11.15L5.4 -19.4M11.7 -30.95Q11.7 -29.55 10.85 -28.55Q10 -27.6 8.8 -27.6Q6.25 -27.6 6.25 -29.95Q6.25 -31.6 7.1 -32.55Q7.95 -33.55 9.15 -33.55Q10.4 -33.55 11.05 -32.95Q11.7 -32.35 11.7 -30.95" />
</g>
<g id="PathID_104" transform="matrix(0.735685, 0, 0, 0.735685, 88.2, 143.6)" opacity="1">
<path style="fill:none;stroke-width:1;stroke-linecap:round;stroke-linejoin:round;stroke-miterlimit:3;stroke:#004700;stroke-opacity:1" d="M5.4 -19.35Q5.4 -20.4 4.65 -20.75Q3.9 -21 2.2 -21L1.85 -22.7L9.2 -24.35L10.4 -23.05Q7.5 -5.25 7.5 -4.35Q7.5 -3.55 7.65 -3.35Q7.85 -3.15 8.65 -3.15Q9.45 -3.15 11.1 -4.1L11.55 -2.45Q8.25 0.35 5.65 0.35Q3.95 0.35 3.4 -0.2Q2.8 -0.9 2.8 -2.05Q2.8 -3.15 4.1 -11.15L5.4 -19.35z" />
<path style="fill:none;stroke-width:1;stroke-linecap:round;stroke-linejoin:round;stroke-miterlimit:3;stroke:#004700;stroke-opacity:1" d="M11.7 -30.9Q11.7 -29.5 10.8 -28.55Q10 -27.6 8.8 -27.6Q6.2 -27.6 6.2 -29.9Q6.2 -31.55 7.1 -32.5Q7.9 -33.5 9.1 -33.5Q10.4 -33.5 11 -32.9Q11.7 -32.3 11.7 -30.9z" />
</g>
<g id="PathID_105" transform="matrix(0.735685, 0, 0, 0.735685, 98.45, 143.6)" opacity="1">
<path style="fill:#006C07;fill-opacity:1" d="M10.75 0.4Q1.95 0.4 1.95 -8.25Q1.95 -17.2 7.05 -21.85Q9.8 -24.35 13.2 -24.35Q16.65 -24.35 18.8 -23Q20.95 -21.65 20.95 -19.1Q20.95 -17.7 20 -16.55Q19.1 -15.45 18 -15.45Q15.75 -15.45 15.55 -17.3Q16.35 -18.55 16.35 -19.6Q16.35 -22.05 14.15 -22.05Q11.05 -22.05 8.8 -17.9Q6.55 -13.75 6.55 -8.75Q6.55 -5.9 7.75 -4.1Q8.95 -2.3 11.35 -2.3Q12.65 -2.3 14.3 -2.95Q16 -3.65 16.95 -4.4L17.95 -5.1L19.35 -3.2Q18.05 -1.9 15.45 -0.75Q12.9 0.4 10.75 0.4" />
</g>
<g id="PathID_106" transform="matrix(0.735685, 0, 0, 0.735685, 98.45, 143.6)" opacity="1">
<path style="fill:none;stroke-width:1;stroke-linecap:round;stroke-linejoin:round;stroke-miterlimit:3;stroke:#004700;stroke-opacity:1" d="M10.75 0.35Q1.9 0.35 1.9 -8.2Q1.9 -17.2 7 -21.8Q9.8 -24.35 13.2 -24.35Q16.6 -24.35 18.75 -22.95Q20.95 -21.6 20.95 -19.1Q20.95 -17.65 20 -16.5Q19.1 -15.45 17.95 -15.45Q15.7 -15.45 15.5 -17.25Q16.3 -18.5 16.3 -19.55Q16.3 -22 14.15 -22Q11 -22 8.75 -17.9Q6.5 -13.75 6.5 -8.7Q6.5 -5.85 7.75 -4.1Q8.9 -2.25 11.35 -2.25Q12.65 -2.25 14.25 -2.9Q15.95 -3.6 16.9 -4.35L17.95 -5.1L19.3 -3.2Q18 -1.85 15.4 -0.75Q12.85 0.35 10.75 0.35z" />
</g>
<g id="PathID_107" transform="matrix(0.735685, 0, 0, 0.735685, 114.75, 143.6)" opacity="1">
<path style="fill:#006C07;fill-opacity:1" d="M5.4 -19.4Q5.4 -20.45 4.65 -20.75Q3.9 -21.05 2.2 -21.05L1.9 -22.75L9.2 -24.35L10.45 -23.05Q7.5 -5.25 7.5 -4.4Q7.5 -3.6 7.65 -3.35Q7.85 -3.15 8.65 -3.15Q9.45 -3.15 11.1 -4.1L11.6 -2.5Q8.25 0.4 5.7 0.4Q3.95 0.4 3.4 -0.25Q2.85 -0.95 2.85 -2.05Q2.85 -3.15 4.1 -11.15L5.4 -19.4M11.7 -30.95Q11.7 -29.55 10.85 -28.55Q10 -27.6 8.8 -27.6Q6.25 -27.6 6.25 -29.95Q6.25 -31.6 7.1 -32.55Q7.95 -33.55 9.15 -33.55Q10.4 -33.55 11.05 -32.95Q11.7 -32.35 11.7 -30.95" />
</g>
<g id="PathID_108" transform="matrix(0.735685, 0, 0, 0.735685, 114.75, 143.6)" opacity="1">
<path style="fill:none;stroke-width:1;stroke-linecap:round;stroke-linejoin:round;stroke-miterlimit:3;stroke:#004700;stroke-opacity:1" d="M5.35 -19.35Q5.35 -20.4 4.6 -20.75Q3.9 -21 2.2 -21L1.85 -22.7L9.2 -24.35L10.4 -23.05Q7.5 -5.25 7.5 -4.35Q7.5 -3.55 7.6 -3.35Q7.8 -3.15 8.65 -3.15Q9.45 -3.15 11.1 -4.1L11.55 -2.45Q8.25 0.35 5.65 0.35Q3.95 0.35 3.4 -0.2Q2.8 -0.9 2.8 -2.05Q2.8 -3.15 4.1 -11.15L5.35 -19.35z" />
<path style="fill:none;stroke-width:1;stroke-linecap:round;stroke-linejoin:round;stroke-miterlimit:3;stroke:#004700;stroke-opacity:1" d="M11.7 -30.9Q11.7 -29.5 10.8 -28.55Q10 -27.6 8.75 -27.6Q6.2 -27.6 6.2 -29.9Q6.2 -31.55 7.05 -32.5Q7.9 -33.5 9.1 -33.5Q10.4 -33.5 11 -32.9Q11.7 -32.3 11.7 -30.9z" />
</g>
<g id="PathID_109" transform="matrix(0.735685, 0, 0, 0.735685, 124.95, 143.6)" opacity="1">
<path style="fill:#006C07;fill-opacity:1" d="M21.65 -18.9Q21.65 -15.15 17.4 -12.55Q13.15 -9.95 6.7 -9.95L6.7 -8.8Q6.7 -5.5 7.9 -3.9Q9.15 -2.3 11.25 -2.3Q14.1 -2.3 18.25 -5.4L19.75 -3.5Q18.15 -1.9 15.6 -0.75Q13.05 0.4 10.2 0.4Q5.95 0.4 3.95 -2.05Q2 -4.55 2 -8Q2 -15.4 5.5 -19.85Q9.05 -24.35 14.6 -24.35Q18.1 -24.35 19.85 -22.75Q21.65 -21.15 21.65 -18.9M14.25 -22Q11.45 -22 9.5 -19.3Q7.6 -16.65 6.95 -12.45Q11.5 -12.45 14.3 -14.3Q17.15 -16.15 17.15 -19Q17.15 -20.25 16.4 -21.1Q15.65 -22 14.25 -22" />
</g>
<g id="PathID_110" transform="matrix(0.735685, 0, 0, 0.735685, 124.95, 143.6)" opacity="1">
<path style="fill:none;stroke-width:1;stroke-linecap:round;stroke-linejoin:round;stroke-miterlimit:3;stroke:#004700;stroke-opacity:1" d="M21.65 -18.9Q21.65 -15.1 17.4 -12.5Q13.15 -9.9 6.7 -9.9L6.7 -8.75Q6.7 -5.45 7.9 -3.85Q9.1 -2.25 11.25 -2.25Q14.1 -2.25 18.25 -5.35L19.75 -3.45Q18.15 -1.85 15.6 -0.75Q13.05 0.35 10.2 0.35Q5.95 0.35 3.95 -2.05Q2 -4.5 2 -7.95Q2 -15.35 5.45 -19.85Q9.05 -24.35 14.55 -24.35Q18.1 -24.35 19.85 -22.7Q21.65 -21.15 21.65 -18.9z" />
<path style="fill:none;stroke-width:1;stroke-linecap:round;stroke-linejoin:round;stroke-miterlimit:3;stroke:#004700;stroke-opacity:1" d="M14.2 -21.95Q11.45 -21.95 9.45 -19.25Q7.55 -16.6 6.95 -12.45Q11.5 -12.45 14.3 -14.25Q17.15 -16.1 17.15 -18.95Q17.15 -20.2 16.4 -21.05Q15.65 -21.95 14.2 -21.95z" />
</g>
<g id="PathID_111" transform="matrix(0.735685, 0, 0, 0.735685, 142.15, 143.6)" opacity="1">
<path style="fill:#006C07;fill-opacity:1" d="M11.55 -22.05Q10.3 -22.05 9.2 -21.2Q8.15 -20.4 8.15 -18.9Q8.15 -17.45 9.05 -16.35Q10 -15.3 11.9 -13.7Q13.85 -12.15 15 -10.7Q16.15 -9.3 16.15 -7.55Q16.15 -3.75 13.55 -1.65Q10.95 0.4 7.35 0.4Q3.8 0.4 0.6 -1.75L2.15 -7.95L4.2 -7.6Q4.1 -6.6 4.1 -5.3Q4.1 -4 5.05 -3Q6 -2.05 8.45 -2.05Q9.6 -2.05 10.7 -2.85Q11.85 -3.7 11.85 -5.5Q11.85 -6.4 11.5 -6.85L11 -7.55Q10.85 -7.8 10.35 -8.25L9.7 -8.9Q8.8 -9.8 7.85 -10.55Q6.9 -11.35 6.15 -12.15Q5.4 -12.95 4.7 -14.3Q4.05 -15.65 4.05 -17.1Q4.05 -20.6 6.45 -22.45Q8.9 -24.35 12.25 -24.35Q15.65 -24.35 18.8 -22.6L17.15 -16.8L15.1 -16.8L15.15 -18.65Q15.15 -19.85 14.55 -20.95Q14 -22.05 11.55 -22.05" />
</g>
<g id="PathID_112" transform="matrix(0.735685, 0, 0, 0.735685, 142.15, 143.6)" opacity="1">
<path style="fill:none;stroke-width:1;stroke-linecap:round;stroke-linejoin:round;stroke-miterlimit:3;stroke:#004700;stroke-opacity:1" d="M11.5 -22Q10.25 -22 9.15 -21.15Q8.1 -20.4 8.1 -18.9Q8.1 -17.4 9.05 -16.3Q10 -15.3 11.9 -13.65Q13.8 -12.1 14.95 -10.65Q16.1 -9.25 16.1 -7.55Q16.1 -3.75 13.5 -1.65Q10.95 0.35 7.35 0.35Q3.75 0.35 0.55 -1.7L2.1 -7.9L4.15 -7.55Q4.05 -6.6 4.05 -5.25Q4.05 -3.95 5.05 -3Q6 -2.05 8.4 -2.05Q9.6 -2.05 10.65 -2.8Q11.8 -3.65 11.8 -5.45Q11.8 -6.4 11.5 -6.8L10.95 -7.55Q10.8 -7.75 10.35 -8.2L9.65 -8.85Q8.75 -9.8 7.8 -10.55Q6.85 -11.35 6.1 -12.1Q5.35 -12.9 4.7 -14.25Q4 -15.65 4 -17.05Q4 -20.6 6.4 -22.45Q8.85 -24.35 12.25 -24.35Q15.65 -24.35 18.75 -22.55L17.1 -16.8L15.1 -16.8L15.1 -18.6Q15.1 -19.85 14.55 -20.95Q13.95 -22 11.5 -22z" />
</g>
<g id="PathID_113" transform="matrix(0.504205, 0, 0, 0.504205, 99, 31.8)" opacity="1">
<path style="fill:#004700;fill-opacity:1" d="M56.3 12.2L18.5 12.2Q17.05 12.2 17.05 13.65L17.05 112.5L4.7 107.15L4.7 13.65Q4.7 7.95 8.75 4.05Q12.85 0 18.5 0L56.3 0L111 54.7L111 131.2Q111 136.85 106.95 140.9Q103.05 145 97.4 145L36.7 145L43.35 132.65L97.4 132.65Q98.85 132.65 98.85 131.2L98.85 54.7L69.95 54.7Q64.25 54.7 60.4 50.85Q56.3 46.75 56.3 41.1L56.3 12.2M24.85 122.4L68.65 73.7L26.95 150L0 111.7L24.85 122.4M7.95 139.95Q4.7 136.05 4.7 131.2L4.7 128.9L15.75 144.65Q11.05 143.7 7.95 139.95" />
</g>
<g id="PathID_114" transform="matrix(0.504205, 0, 0, 0.504205, 99, 31.8)" opacity="1">
</g>
<filter id="filter24" x="-0.521857" y="-0.521857" width="2.2411" height="2.24373" >
<feComponentTransfer in="SourceGraphic">
	<feFuncR type="linear" slope="0"/>
	<feFuncG type="linear" slope="0"/>
	<feFuncB type="linear" slope="0"/>
</feComponentTransfer>
<feGaussianBlur stdDeviation="0.6 0.6" />
<feOffset dx="2.12135" dy="2.12129"/>
<feComponentTransfer result="22">
	<feFuncR type="linear" Ue="0" intercept="0.101961"/>
	<feFuncG type="linear" Ue="0" intercept="0.352941"/>
	<feFuncB type="linear" Ue="0" intercept="0.113725"/>
	<feFuncA type="linear" xh="0" slope="2"/>
</feComponentTransfer>
<feComposite result="23"  in="SourceGraphic" in2="22" operator="over"/>
</filter>
<g style="filter:url(#filter24);">
<g id="PathID_115" transform="matrix(0.819404, 0, 0, 0.819404, 332.65, 76.9)" opacity="1">
<path style="fill:#00A60B;fill-opacity:1" d="M127.45 16.95L101.3 20.8L104.55 42.5L130.4 38.95L127.45 16.95M133.35 4.45L150 123.05Q150.3 123.65 149.7 124.2L148.8 124.8L125.35 128.1L122.1 128.4L120 128.4L114.95 128.7Q110.5 129 109.3 129.55Q109 129.25 109 128.7L92.4 10.4Q92.1 9.8 92.4 9.25L93.55 8.65L131.6 3.3L132.75 3.6L133.35 4.45M90.9 0.6Q91.2 0.9 91.2 1.8L91.2 128.7L91.2 129.25Q86.15 129 80.5 129Q67.7 129 58.8 129.55L52.85 130.15L51.1 130.15L48.1 129.85L47.8 129.55Q47.25 129.25 47.25 128.7L47.25 1.8Q47.25 0.9 47.8 0.6Q48.1 0 49 0L89.7 0Q90.3 0 90.9 0.6M83.15 14L55.25 14L55.25 37.45L83.15 37.45L83.15 14M41.6 8.95L41.6 128.7L41.3 129.25Q34.45 129 25.25 129Q13.35 129 5.05 129.55L0.9 130.15L0.3 129.55Q0 129.25 0 128.7L0 8.95Q0 8.35 0.3 8.05Q0.9 7.45 1.5 7.45L39.8 7.45Q40.7 7.45 41 8.05Q41.6 8.35 41.6 8.95M33.85 20.5L7.4 20.5L7.4 42.5L33.85 42.5L33.85 20.5M79.3 108.2Q79.3 104 76.35 101.05Q73.35 98.05 69.2 98.05Q65.05 98.05 62.1 101.05Q59.1 104 59.1 108.2Q59.1 112.35 62.1 115.3Q65.05 118.3 69.2 118.3Q73.65 118.3 76.35 115.3Q79.3 112.35 79.3 108.2M27.9 115.3Q30.9 112.35 30.9 108.2Q30.9 104 27.9 101.05Q24.95 98.05 20.8 98.05Q16.65 98.05 13.65 101.05Q10.7 104 10.7 108.2Q10.7 112.35 13.65 115.3Q16.65 118.3 20.8 118.3Q24.95 118.3 27.9 115.3M134.85 101.05Q131.9 98.05 127.7 98.05Q123.55 98.05 120.6 101.05Q117.6 104 117.6 108.2Q117.6 112.35 120.6 115.3Q123.55 118.3 127.7 118.3Q131.9 118.3 134.85 115.3Q137.8 112.35 137.8 108.2Q137.8 104 134.85 101.05" />
</g>
<g id="PathID_116" transform="matrix(0.819404, 0, 0, 0.819404, 332.65, 76.9)" opacity="1">
</g>
</g>
<g id="PathID_117" transform="matrix(0.441411, 0, 0, 0.441411, 15.9, 112.25)" opacity="1">
<path style="fill:#006C07;fill-opacity:1" d="M5 -34.3L17.45 -34.15L31.1 -34.3L29.75 -25.65Q29.35 -25.5 28.75 -25.5Q28.2 -25.5 27.45 -25.65L27.5 -26.8Q27.5 -29.4 26.6 -31.25L20.05 -31.45L15.55 -3.15Q17.1 -2.35 20.65 -1.85L20.4 0L5.85 0L6.15 -1.85Q9.4 -2.2 11 -3.15L15.55 -31.45Q11.5 -31.45 8.65 -31.35Q6.6 -28.75 5.9 -25.65Q5.1 -25.5 4.5 -25.5Q3.95 -25.5 3.65 -25.65L5 -34.3" />
</g>
<g id="PathID_118" transform="matrix(0.441411, 0, 0, 0.441411, 15.9, 112.25)" opacity="1">
<path style="fill:none;stroke-width:1;stroke-linecap:round;stroke-linejoin:round;stroke-miterlimit:3;stroke:#004700;stroke-opacity:1" d="M5 -34.25L17.45 -34.15L31.05 -34.25L29.65 -25.65Q29.35 -25.55 28.65 -25.55Q28.1 -25.55 27.4 -25.65L27.4 -26.75Q27.4 -29.4 26.5 -31.2L20.05 -31.4L15.5 -3.1Q17 -2.3 20.6 -1.85L20.4 0L5.75 0L6.1 -1.85Q9.3 -2.2 11 -3.1L15.5 -31.4Q11.45 -31.4 8.6 -31.3Q6.55 -28.7 5.9 -25.65Q5.1 -25.55 4.4 -25.55Q3.85 -25.55 3.6 -25.65L5 -34.25z" />
</g>
<g id="PathID_119" transform="matrix(0.441411, 0, 0, 0.441411, 28.85, 112.25)" opacity="1">
<path style="fill:#006C07;fill-opacity:1" d="M21.65 -18.9Q21.65 -15.15 17.4 -12.55Q13.15 -9.95 6.7 -9.95L6.7 -8.8Q6.7 -5.5 7.9 -3.9Q9.15 -2.3 11.25 -2.3Q14.1 -2.3 18.25 -5.4L19.75 -3.5Q18.15 -1.9 15.6 -0.75Q13.05 0.4 10.2 0.4Q5.95 0.4 3.95 -2.05Q2 -4.55 2 -8Q2 -15.4 5.5 -19.85Q9.05 -24.35 14.6 -24.35Q18.1 -24.35 19.85 -22.75Q21.65 -21.15 21.65 -18.9M14.25 -22Q11.45 -22 9.5 -19.3Q7.6 -16.65 6.95 -12.45Q11.5 -12.45 14.3 -14.3Q17.15 -16.15 17.15 -19Q17.15 -20.25 16.4 -21.1Q15.65 -22 14.25 -22" />
</g>
<g id="PathID_120" transform="matrix(0.441411, 0, 0, 0.441411, 28.85, 112.25)" opacity="1">
<path style="fill:none;stroke-width:1;stroke-linecap:round;stroke-linejoin:round;stroke-miterlimit:3;stroke:#004700;stroke-opacity:1" d="M21.6 -18.85Q21.6 -15.1 17.3 -12.5Q13.1 -9.9 6.65 -9.9L6.65 -8.75Q6.65 -5.5 7.8 -3.9Q9.05 -2.3 11.2 -2.3Q14.05 -2.3 18.2 -5.35L19.7 -3.45Q18.1 -1.85 15.5 -0.7Q13 0.35 10.2 0.35Q5.85 0.35 3.85 -2.1Q1.9 -4.55 1.9 -7.95Q1.9 -15.35 5.4 -19.85Q8.95 -24.3 14.5 -24.3Q18 -24.3 19.8 -22.7Q21.6 -21.1 21.6 -18.85z" />
<path style="fill:none;stroke-width:1;stroke-linecap:round;stroke-linejoin:round;stroke-miterlimit:3;stroke:#004700;stroke-opacity:1" d="M14.15 -22Q11.4 -22 9.4 -19.3Q7.55 -16.6 6.9 -12.4Q11.4 -12.4 14.25 -14.3Q17.1 -16.1 17.1 -18.95Q17.1 -20.2 16.3 -21.1Q15.6 -22 14.15 -22z" />
</g>
<g id="PathID_121" transform="matrix(0.441411, 0, 0, 0.441411, 39.2, 112.25)" opacity="1">
<path style="fill:#006C07;fill-opacity:1" d="M10.75 0.4Q1.95 0.4 1.95 -8.25Q1.95 -17.2 7.05 -21.85Q9.8 -24.35 13.2 -24.35Q16.65 -24.35 18.8 -23Q20.95 -21.65 20.95 -19.1Q20.95 -17.7 20 -16.55Q19.1 -15.45 18 -15.45Q15.75 -15.45 15.55 -17.3Q16.35 -18.55 16.35 -19.6Q16.35 -22.05 14.15 -22.05Q11.05 -22.05 8.8 -17.9Q6.55 -13.75 6.55 -8.75Q6.55 -5.9 7.75 -4.1Q8.95 -2.3 11.35 -2.3Q12.65 -2.3 14.3 -2.95Q16 -3.65 16.95 -4.4L17.95 -5.1L19.35 -3.2Q18.05 -1.9 15.45 -0.75Q12.9 0.4 10.75 0.4" />
</g>
<g id="PathID_122" transform="matrix(0.441411, 0, 0, 0.441411, 39.2, 112.25)" opacity="1">
<path style="fill:none;stroke-width:1;stroke-linecap:round;stroke-linejoin:round;stroke-miterlimit:3;stroke:#004700;stroke-opacity:1" d="M10.65 0.35Q1.9 0.35 1.9 -8.2Q1.9 -17.15 7 -21.8Q9.7 -24.3 13.1 -24.3Q16.5 -24.3 18.65 -23.05Q20.8 -21.7 20.8 -19.05Q20.8 -17.7 19.9 -16.6Q19 -15.45 17.9 -15.45Q15.75 -15.45 15.5 -17.25Q16.3 -18.5 16.3 -19.65Q16.3 -22 14.05 -22Q10.95 -22 8.7 -17.95Q6.45 -13.75 6.45 -8.75Q6.45 -5.95 7.7 -4.1Q8.95 -2.3 11.3 -2.3Q12.55 -2.3 14.25 -3Q15.95 -3.65 16.85 -4.35L17.9 -5.15L19.25 -3.2Q18 -1.85 15.4 -0.7Q12.8 0.35 10.65 0.35z" />
</g>
<g id="PathID_123" transform="matrix(0.441411, 0, 0, 0.441411, 48.9, 112.25)" opacity="1">
<path style="fill:#006C07;fill-opacity:1" d="M6.95 -30.85Q6.95 -33 3 -33.4L3.25 -35.1L10.7 -35.65L11.95 -34.4L9.35 -18.35Q12.8 -24.35 17.45 -24.35Q20.2 -24.35 21.7 -22.9Q23.2 -21.5 23.2 -18.85Q23.2 -18.3 22.95 -16.7L20.8 -4.3Q20.8 -3.15 21.8 -3.15Q22.85 -3.15 24.5 -4.1L25 -2.5Q21.7 0.4 19.2 0.4Q17.45 0.4 16.85 -0.3Q16.25 -1 16.25 -2Q16.25 -3 17.45 -10.05Q18.7 -17.15 18.7 -18.45Q18.7 -19.75 17.95 -20.65Q17.25 -21.55 16 -21.55Q13.35 -21.55 11.25 -18.25Q9.2 -14.95 8.15 -10.25L6.5 0L2.05 0L5.9 -24.05Q6.95 -30.3 6.95 -30.85" />
</g>
<g id="PathID_124" transform="matrix(0.441411, 0, 0, 0.441411, 48.9, 112.25)" opacity="1">
<path style="fill:none;stroke-width:1;stroke-linecap:round;stroke-linejoin:round;stroke-miterlimit:3;stroke:#004700;stroke-opacity:1" d="M6.9 -30.85Q6.9 -33 2.95 -33.35L3.2 -35.05L10.65 -35.6L11.9 -34.35L9.3 -18.3Q12.8 -24.3 17.45 -24.3Q20.15 -24.3 21.65 -22.9Q23.1 -21.45 23.1 -18.85Q23.1 -18.3 22.9 -16.7L20.75 -4.25Q20.75 -3.1 21.75 -3.1Q22.75 -3.1 24.45 -4.1L24.95 -2.55Q21.65 0.35 19.15 0.35Q17.45 0.35 16.75 -0.25Q16.2 -0.95 16.2 -1.95Q16.2 -3 17.45 -10Q18.7 -17.15 18.7 -18.4Q18.7 -19.75 17.9 -20.65Q17.2 -21.55 16 -21.55Q13.25 -21.55 11.2 -18.3Q9.2 -14.9 8.05 -10.25L6.45 0L2.05 0L5.9 -24.05Q6.9 -30.3 6.9 -30.85z" />
</g>
<g id="PathID_125" transform="matrix(0.229239, -0.199839, 0.199839, 0.229239, 133.15, 69.95)" opacity="1">
<path style="fill:#004700;fill-opacity:1" d="M133.35 7L131.4 10.65L129.5 13.6L124.7 21.05Q117.35 32.25 107.25 45.25Q94.55 61.85 77.9 80.8Q76.7 82.45 74.6 84.1Q70.45 87.5 66.7 88.15L64.85 91.1Q64.1 92.2 62.9 92.3L62.1 95.25L60.35 103.3L57.6 117.1Q57.4 119.2 55.75 120.25L54.1 120.7Q44.6 121.6 36.6 124.9Q29.9 127.75 23.65 132.65Q18.85 136.4 15.65 140.1Q13.55 142.55 12.6 144.2Q11.35 149.2 7.2 149.9Q5.8 150.1 4.45 149.9L3.25 149.65L43.6 103.15Q45.15 103.4 46.25 103.15Q47.75 102.85 48.55 101.75Q49.4 100.75 49.1 99.35Q48.65 98 47.2 97.15Q45.7 96.35 44.05 96.5Q42.4 96.8 41.5 97.9Q40.65 98.65 41.05 100.3Q41.5 101.75 42.4 102.85L1.2 148.55L0.4 147.25Q-0.15 145.6 0.1 144.2Q0.5 142.1 1.5 140.45Q2.8 138.35 5 137.6Q6.45 136.4 8.3 134.2Q12.15 130.15 15.1 125.2Q17.05 122.15 18.4 119.3Q20.05 115.8 20.8 112.95Q21.9 109.4 22.1 106.25Q22.55 103.15 22.35 99.65L22.55 98.45Q23.2 97.25 24.85 96.35Q27.6 95.25 36.8 90.55L44.45 86.6L48.95 84.1Q48.95 83.45 49.6 82.45Q50.5 80.8 52.7 78.85Q52.45 77.95 53.15 75.95Q55 71.6 61.7 65.45L75.8 51.2L97.4 29.6Q111 16.35 119.55 9L120.2 8.55L120 8.55L121.65 7.1L123.5 5.8Q129.5 1 132.15 0.1L132.8 0.1L133.8 0L134.9 0.1Q136.3 1.2 135.75 2.4L133.35 7" />
</g>
<g id="PathID_126" transform="matrix(0.229239, -0.199839, 0.199839, 0.229239, 133.15, 69.95)" opacity="1">
</g>
</svg>
